LightCondensed.ufo
<glyph name="exclam" format="1">
  <advance width="49"/>
  <unicode hex="0021"/>
  <outline>
    <contour>
      <point x="30" y="709" type="line"/>
      <point x="18" y="709" type="line"/>
      <point x="20" y="151" type="line"/>
      <point x="28" y="151" type="line"/>
    </contour>
    <contour>
      <point x="18" y="77" type="line"/>
      <point x="18" y="0" type="line"/>
      <point x="31" y="0" type="line"/>
      <point x="31" y="77" type="line"/>
    </contour>
  </outline>
</glyph>
<glyph name="numbersign" format="1">
  <advance width="175"/>
  <unicode hex="0023"/>
  <outline>
    <contour>
      <point x="98" y="261" type="line"/>
      <point x="64" y="0" type="line"/>
      <point x="78" y="0" type="line"/>
      <point x="112" y="261" type="line"/>
      <point x="152" y="261" type="line"/>
      <point x="153" y="273" type="line"/>
      <point x="113" y="273" type="line"/>
      <point x="135" y="433" type="line"/>
      <point x="175" y="433" type="line"/>
      <point x="176" y="445" type="line"/>
      <point x="136" y="445" type="line"/>
      <point x="168" y="692" type="line"/>
      <point x="154" y="692" type="line"/>
      <point x="122" y="445" type="line"/>
      <point x="78" y="445" type="line"/>
      <point x="110" y="692" type="line"/>
      <point x="96" y="692" type="line"/>
      <point x="64" y="445" type="line"/>
      <point x="23" y="445" type="line"/>
      <point x="21" y="433" type="line"/>
      <point x="63" y="433" type="line"/>
      <point x="41" y="273" type="line"/>
      <point x="0" y="273" type="line"/>
      <point x="-2" y="261" type="line"/>
      <point x="40" y="261" type="line"/>
      <point x="6" y="0" type="line"/>
      <point x="20" y="0" type="line"/>
      <point x="54" y="261" type="line"/>
    </contour>
    <contour>
      <point x="99" y="273" type="line"/>
      <point x="55" y="273" type="line"/>
      <point x="77" y="433" type="line"/>
      <point x="121" y="433" type="line"/>
    </contour>
  </outline>
</glyph>
<glyph name="dollar" format="1">
  <advance width="131"/>
  <unicode hex="0024"/>
  <outline>
    <contour>
      <point x="71" y="661" type="line"/>
      <point x="95" y="653"/>
      <point x="96" y="605"/>
      <point x="95" y="565" type="curve"/>
      <point x="110" y="564" type="line"/>
      <point x="111" y="619"/>
      <point x="102" y="668"/>
      <point x="71" y="673" type="curve"/>
      <point x="71" y="748" type="line"/>
      <point x="56" y="748" type="line"/>
      <point x="56" y="673" type="line"/>
      <point x="28" y="665"/>
      <point x="14" y="621"/>
      <point x="14" y="552" type="curve" smooth="yes"/>
      <point x="14" y="480"/>
      <point x="24" y="426"/>
      <point x="56" y="362" type="curve"/>
      <point x="56" y="23" type="line"/>
      <point x="24" y="30"/>
      <point x="25" y="72"/>
      <point x="27" y="128" type="curve"/>
      <point x="12" y="128" type="line"/>
      <point x="10" y="58"/>
      <point x="17" y="17"/>
      <point x="56" y="11" type="curve"/>
      <point x="56" y="-70" type="line"/>
      <point x="71" y="-70" type="line"/>
      <point x="71" y="12" type="line"/>
      <point x="115" y="24"/>
      <point x="119" y="100"/>
      <point x="119" y="159" type="curve" smooth="yes"/>
      <point x="119" y="237"/>
      <point x="103" y="286"/>
      <point x="71" y="358" type="curve"/>
    </contour>
    <contour>
      <point x="56" y="395" type="line"/>
      <point x="31" y="446"/>
      <point x="28" y="491"/>
      <point x="28" y="552" type="curve" smooth="yes"/>
      <point x="28" y="606"/>
      <point x="38" y="652"/>
      <point x="56" y="661" type="curve"/>
    </contour>
    <contour>
      <point x="71" y="325" type="line"/>
      <point x="97" y="269"/>
      <point x="105" y="228"/>
      <point x="105" y="166" type="curve" smooth="yes"/>
      <point x="105" y="101"/>
      <point x="99" y="35"/>
      <point x="71" y="24" type="curve"/>
    </contour>
  </outline>
</glyph>
<glyph name="percent" format="1">
  <advance width="245"/>
  <unicode hex="0025"/>
  <outline>
    <contour>
      <point x="113" y="540" type="line"/>
      <point x="113" y="653"/>
      <point x="101" y="720"/>
      <point x="61" y="720" type="curve" smooth="yes"/>
      <point x="21" y="720"/>
      <point x="10" y="653"/>
      <point x="10" y="540" type="curve" smooth="yes"/>
      <point x="10" y="426"/>
      <point x="21" y="360"/>
      <point x="61" y="360" type="curve" smooth="yes"/>
      <point x="102" y="360"/>
      <point x="113" y="426"/>
      <point x="113" y="539" type="curve"/>
    </contour>
    <contour>
      <point x="218" y="720" type="line"/>
      <point x="205" y="720" type="line"/>
      <point x="24" y="-10" type="line"/>
      <point x="38" y="-10" type="line"/>
    </contour>
    <contour>
      <point x="61" y="374" type="line"/>
      <point x="31" y="374"/>
      <point x="24" y="443"/>
      <point x="24" y="540" type="curve" smooth="yes"/>
      <point x="24" y="636"/>
      <point x="31" y="706"/>
      <point x="61" y="706" type="curve" smooth="yes"/>
      <point x="92" y="706"/>
      <point x="98" y="636"/>
      <point x="98" y="540" type="curve" smooth="yes"/>
      <point x="98" y="443"/>
      <point x="92" y="374"/>
      <point x="62" y="374" type="curve"/>
    </contour>
    <contour>
      <point x="235" y="168" type="line"/>
      <point x="235" y="282"/>
      <point x="224" y="348"/>
      <point x="184" y="348" type="curve" smooth="yes"/>
      <point x="144" y="348"/>
      <point x="132" y="282"/>
      <point x="132" y="168" type="curve" smooth="yes"/>
      <point x="132" y="54"/>
      <point x="143" y="-12"/>
      <point x="184" y="-12" type="curve" smooth="yes"/>
      <point x="224" y="-12"/>
      <point x="235" y="54"/>
      <point x="235" y="167" type="curve"/>
    </contour>
    <contour>
      <point x="184" y="2" type="line"/>
      <point x="153" y="2"/>
      <point x="147" y="71"/>
      <point x="147" y="168" type="curve" smooth="yes"/>
      <point x="147" y="265"/>
      <point x="153" y="334"/>
      <point x="184" y="334" type="curve" smooth="yes"/>
      <point x="214" y="334"/>
      <point x="221" y="265"/>
      <point x="221" y="168" type="curve" smooth="yes"/>
      <point x="221" y="71"/>
      <point x="214" y="2"/>
      <point x="185" y="2" type="curve"/>
    </contour>
  </outline>
</glyph>
<glyph name="ampersand" format="1">
  <advance width="144"/>
  <unicode hex="0026"/>
  <outline>
    <contour>
      <point x="146" y="-1" type="line"/>
      <point x="141" y="16"/>
      <point x="130" y="58"/>
      <point x="120" y="106" type="curve"/>
      <point x="129" y="186"/>
      <point x="127" y="257"/>
      <point x="126" y="349" type="curve"/>
      <point x="111" y="349" type="line"/>
      <point x="112" y="263"/>
      <point x="113" y="182"/>
      <point x="112" y="126" type="curve"/>
      <point x="105" y="180"/>
      <point x="73" y="312"/>
      <point x="63" y="392" type="curve"/>
      <point x="86" y="461"/>
      <point x="104" y="515"/>
      <point x="104" y="578" type="curve" smooth="yes"/>
      <point x="104" y="642"/>
      <point x="90" y="673"/>
      <point x="67" y="673" type="curve" smooth="yes"/>
      <point x="43" y="673"/>
      <point x="30" y="639"/>
      <point x="30" y="565" type="curve" smooth="yes"/>
      <point x="30" y="507"/>
      <point x="41" y="442"/>
      <point x="53" y="382" type="curve"/>
      <point x="28" y="307"/>
      <point x="14" y="240"/>
      <point x="14" y="161" type="curve" smooth="yes"/>
      <point x="14" y="39"/>
      <point x="36" y="-14"/>
      <point x="68" y="-14" type="curve" smooth="yes"/>
      <point x="97" y="-14"/>
      <point x="112" y="27"/>
      <point x="115" y="72" type="curve"/>
      <point x="117" y="72" type="line"/>
      <point x="121" y="44"/>
      <point x="126" y="23"/>
      <point x="133" y="-1" type="curve"/>
    </contour>
    <contour>
      <point x="44" y="564" type="line"/>
      <point x="44" y="639"/>
      <point x="57" y="660"/>
      <point x="68" y="660" type="curve" smooth="yes"/>
      <point x="82" y="660"/>
      <point x="90" y="622"/>
      <point x="90" y="575" type="curve" smooth="yes"/>
      <point x="90" y="524"/>
      <point x="73" y="459"/>
      <point x="59" y="405" type="curve"/>
      <point x="52" y="451"/>
      <point x="44" y="500"/>
      <point x="44" y="563" type="curve"/>
    </contour>
    <contour>
      <point x="27" y="156" type="line"/>
      <point x="27" y="236"/>
      <point x="39" y="303"/>
      <point x="54" y="365" type="curve"/>
      <point x="66" y="278"/>
      <point x="92" y="171"/>
      <point x="109" y="97" type="curve"/>
      <point x="102" y="41"/>
      <point x="88" y="-1"/>
      <point x="67" y="-1" type="curve" smooth="yes"/>
      <point x="36" y="-1"/>
      <point x="27" y="71"/>
      <point x="27" y="155" type="curve"/>
    </contour>
  </outline>
</glyph>
<glyph name="parenleft" format="1">
  <advance width="80"/>
  <unicode hex="0028"/>
  <outline>
    <contour>
      <point x="104" y="-183" type="line"/>
      <point x="82" y="-122"/>
      <point x="67" y="-65"/>
      <point x="56" y="-12" type="curve" smooth="yes"/>
      <point x="31" y="117"/>
      <point x="34" y="221"/>
      <point x="34" y="292" type="curve" smooth="yes"/>
      <point x="34" y="415"/>
      <point x="43" y="512"/>
      <point x="59" y="595" type="curve" smooth="yes"/>
      <point x="71" y="657"/>
      <point x="87" y="713"/>
      <point x="106" y="765" type="curve"/>
      <point x="92" y="767" type="line"/>
      <point x="71" y="711"/>
      <point x="55" y="657"/>
      <point x="45" y="598" type="curve" smooth="yes"/>
      <point x="31" y="515"/>
      <point x="23" y="420"/>
      <point x="21" y="292" type="curve" smooth="yes"/>
      <point x="19" y="166"/>
      <point x="27" y="70"/>
      <point x="43" y="-15" type="curve" smooth="yes"/>
      <point x="54" y="-75"/>
      <point x="70" y="-130"/>
      <point x="90" y="-185" type="curve"/>
    </contour>
  </outline>
</glyph>
<glyph name="parenright" format="1">
  <advance width="80"/>
  <unicode hex="0029"/>
  <outline>
    <contour>
      <point x="-10" y="-185" type="line"/>
      <point x="10" y="-130"/>
      <point x="26" y="-75"/>
      <point x="37" y="-15" type="curve" smooth="yes"/>
      <point x="53" y="70"/>
      <point x="62" y="166"/>
      <point x="59" y="292" type="curve" smooth="yes"/>
      <point x="57" y="420"/>
      <point x="51" y="515"/>
      <point x="35" y="598" type="curve" smooth="yes"/>
      <point x="25" y="657"/>
      <point x="9" y="711"/>
      <point x="-12" y="767" type="curve"/>
      <point x="-26" y="765" type="line"/>
      <point x="-7" y="713"/>
      <point x="9" y="657"/>
      <point x="21" y="595" type="curve" smooth="yes"/>
      <point x="37" y="512"/>
      <point x="46" y="415"/>
      <point x="46" y="292" type="curve" smooth="yes"/>
      <point x="46" y="221"/>
      <point x="49" y="117"/>
      <point x="24" y="-12" type="curve" smooth="yes"/>
      <point x="14" y="-65"/>
      <point x="-2" y="-122"/>
      <point x="-24" y="-183" type="curve"/>
    </contour>
  </outline>
</glyph>
<glyph name="comma" format="1">
  <advance width="131"/>
  <unicode hex="002C"/>
  <outline>
    <contour>
      <point x="91" y="0" type="line"/>
      <point x="91" y="120" type="line"/>
      <point x="41" y="120" type="line"/>
      <point x="41" y="0" type="line"/>
      <point x="73" y="-8" type="line"/>
      <point x="62" y="12" type="line"/>
      <point x="40" y="-93" type="line"/>
      <point x="52" y="-95" type="line"/>
    </contour>
  </outline>
</glyph>
<glyph name="hyphen" format="1">
  <advance width="112"/>
  <unicode hex="002D"/>
  <outline>
    <contour>
      <point x="17" y="255" type="line"/>
      <point x="17" y="245" type="line"/>
      <point x="95" y="245" type="line"/>
      <point x="95" y="255" type="line"/>
    </contour>
  </outline>
</glyph>
<glyph name="period" format="1">
  <advance width="130"/>
  <unicode hex="002E"/>
  <outline>
    <contour>
      <point x="40" y="0" type="line"/>
      <point x="90" y="0" type="line"/>
      <point x="90" y="120" type="line"/>
      <point x="40" y="120" type="line"/>
    </contour>
  </outline>
</glyph>
<glyph name="slash" format="1">
  <advance width="128"/>
  <unicode hex="002F"/>
  <outline>
    <contour>
      <point x="130" y="739" type="line"/>
      <point x="115" y="739" type="line"/>
      <point x="-5" y="-12" type="line"/>
      <point x="10" y="-12" type="line"/>
    </contour>
  </outline>
</glyph>
<glyph name="zero" format="1">
  <advance width="150"/>
  <unicode hex="0030"/>
  <outline>
    <contour>
      <point x="16" y="346" type="line"/>
      <point x="16" y="39"/>
      <point x="41" y="-14"/>
      <point x="75" y="-14" type="curve" smooth="yes"/>
      <point x="108" y="-14"/>
      <point x="133" y="38"/>
      <point x="133" y="346" type="curve" smooth="yes"/>
      <point x="133" y="637"/>
      <point x="107" y="705"/>
      <point x="75" y="705" type="curve" smooth="yes"/>
      <point x="43" y="705"/>
      <point x="16" y="636"/>
      <point x="16" y="347" type="curve"/>
    </contour>
    <contour>
      <point x="75" y="693" type="line"/>
      <point x="104" y="693"/>
      <point x="120" y="581"/>
      <point x="120" y="345" type="curve" smooth="yes"/>
      <point x="120" y="54"/>
      <point x="99" y="-2"/>
      <point x="75" y="-2" type="curve" smooth="yes"/>
      <point x="51" y="-2"/>
      <point x="29" y="55"/>
      <point x="29" y="345" type="curve" smooth="yes"/>
      <point x="29" y="581"/>
      <point x="45" y="693"/>
      <point x="74" y="693" type="curve"/>
    </contour>
  </outline>
</glyph>
<glyph name="one" format="1">
  <advance width="124"/>
  <unicode hex="0031"/>
  <outline>
    <contour>
      <point x="-5" y="652" type="line"/>
      <point x="2" y="641" type="line"/>
      <point x="59" y="676" type="line"/>
      <point x="59" y="0" type="line"/>
      <point x="73" y="0" type="line"/>
      <point x="73" y="698" type="line"/>
      <point x="70" y="698" type="line"/>
    </contour>
  </outline>
</glyph>
<glyph name="two" format="1">
  <advance width="150"/>
  <unicode hex="0032"/>
  <outline>
    <contour>
      <point x="136" y="14" type="line"/>
      <point x="17" y="14" type="line"/>
      <point x="38" y="267"/>
      <point x="143" y="339"/>
      <point x="143" y="533" type="curve" smooth="yes"/>
      <point x="143" y="610"/>
      <point x="130" y="705"/>
      <point x="72" y="705" type="curve" smooth="yes"/>
      <point x="22" y="705"/>
      <point x="11" y="636"/>
      <point x="12" y="598" type="curve"/>
      <point x="26" y="598" type="line"/>
      <point x="25" y="633"/>
      <point x="32" y="693"/>
      <point x="73" y="693" type="curve" smooth="yes"/>
      <point x="117" y="693"/>
      <point x="130" y="606"/>
      <point x="130" y="532" type="curve" smooth="yes"/>
      <point x="130" y="343"/>
      <point x="24" y="268"/>
      <point x="6" y="9" type="curve"/>
      <point x="11" y="0" type="line"/>
      <point x="136" y="0" type="line"/>
    </contour>
  </outline>
</glyph>
<glyph name="three" format="1">
  <advance width="150"/>
  <unicode hex="0033"/>
  <outline>
    <contour>
      <point x="40" y="366" type="line"/>
      <point x="97" y="353"/>
      <point x="125" y="293"/>
      <point x="125" y="170" type="curve" smooth="yes"/>
      <point x="125" y="83"/>
      <point x="108" y="0"/>
      <point x="66" y="0" type="curve" smooth="yes"/>
      <point x="32" y="0"/>
      <point x="20" y="47"/>
      <point x="21" y="91" type="curve"/>
      <point x="8" y="91" type="line"/>
      <point x="7" y="37"/>
      <point x="28" y="-12"/>
      <point x="66" y="-12" type="curve" smooth="yes"/>
      <point x="115" y="-12"/>
      <point x="138" y="61"/>
      <point x="138" y="182" type="curve" smooth="yes"/>
      <point x="138" y="329"/>
      <point x="81" y="364"/>
      <point x="62" y="372" type="curve"/>
      <point x="62" y="374" type="line"/>
      <point x="103" y="396"/>
      <point x="131" y="452"/>
      <point x="131" y="558" type="curve" smooth="yes"/>
      <point x="131" y="651"/>
      <point x="108" y="705"/>
      <point x="68" y="705" type="curve" smooth="yes"/>
      <point x="44" y="705"/>
      <point x="14" y="672"/>
      <point x="14" y="608" type="curve"/>
      <point x="28" y="608" type="line"/>
      <point x="28" y="653"/>
      <point x="43" y="693"/>
      <point x="69" y="693" type="curve" smooth="yes"/>
      <point x="99" y="693"/>
      <point x="117" y="638"/>
      <point x="117" y="558" type="curve" smooth="yes"/>
      <point x="117" y="458"/>
      <point x="95" y="397"/>
      <point x="40" y="377" type="curve"/>
    </contour>
  </outline>
</glyph>
<glyph name="four" format="1">
  <advance width="149"/>
  <unicode hex="0034"/>
  <outline>
    <contour>
      <point x="6" y="211" type="line"/>
      <point x="6" y="202" type="line"/>
      <point x="104" y="202" type="line"/>
      <point x="104" y="0" type="line"/>
      <point x="117" y="0" type="line"/>
      <point x="117" y="202" type="line"/>
      <point x="141" y="202" type="line"/>
      <point x="141" y="215" type="line"/>
      <point x="117" y="215" type="line"/>
      <point x="117" y="698" type="line"/>
      <point x="108" y="698" type="line"/>
    </contour>
    <contour>
      <point x="20" y="215" type="line"/>
      <point x="62" y="424" type="line" smooth="yes"/>
      <point x="77" y="493"/>
      <point x="91" y="560"/>
      <point x="104" y="629" type="curve"/>
      <point x="105" y="629" type="line"/>
      <point x="104" y="559"/>
      <point x="104" y="493"/>
      <point x="104" y="424" type="curve" smooth="yes"/>
      <point x="104" y="215" type="line"/>
    </contour>
  </outline>
</glyph>
<glyph name="five" format="1">
  <advance width="150"/>
  <unicode hex="0035"/>
  <outline>
    <contour>
      <point x="15" y="349" type="line"/>
      <point x="26" y="345" type="line"/>
      <point x="39" y="397"/>
      <point x="52" y="427"/>
      <point x="72" y="427" type="curve" smooth="yes"/>
      <point x="105" y="427"/>
      <point x="125" y="343"/>
      <point x="125" y="212" type="curve" smooth="yes"/>
      <point x="125" y="58"/>
      <point x="95" y="1"/>
      <point x="68" y="1" type="curve" smooth="yes"/>
      <point x="36" y="1"/>
      <point x="22" y="59"/>
      <point x="24" y="118" type="curve"/>
      <point x="10" y="118" type="line"/>
      <point x="9" y="52"/>
      <point x="25" y="-12"/>
      <point x="68" y="-12" type="curve" smooth="yes"/>
      <point x="103" y="-12"/>
      <point x="138" y="46"/>
      <point x="138" y="212" type="curve" smooth="yes"/>
      <point x="138" y="350"/>
      <point x="116" y="439"/>
      <point x="71" y="439" type="curve" smooth="yes"/>
      <point x="49" y="439"/>
      <point x="38" y="420"/>
      <point x="31" y="402" type="curve"/>
      <point x="29" y="402" type="line"/>
      <point x="52" y="678" type="line"/>
      <point x="130" y="678" type="line"/>
      <point x="129" y="692" type="line"/>
      <point x="40" y="692" type="line"/>
    </contour>
  </outline>
</glyph>
<glyph name="six" format="1">
  <advance width="150"/>
  <unicode hex="0036"/>
  <outline>
    <contour>
      <point x="20" y="355" type="line"/>
      <point x="21" y="644"/>
      <point x="58" y="693"/>
      <point x="83" y="693" type="curve" smooth="yes"/>
      <point x="110" y="693"/>
      <point x="116" y="658"/>
      <point x="115" y="625" type="curve"/>
      <point x="128" y="624" type="line"/>
      <point x="130" y="674"/>
      <point x="110" y="705"/>
      <point x="82" y="705" type="curve" smooth="yes"/>
      <point x="35" y="705"/>
      <point x="7" y="627"/>
      <point x="7" y="297" type="curve" smooth="yes"/>
      <point x="7" y="29"/>
      <point x="50" y="-12"/>
      <point x="80" y="-12" type="curve" smooth="yes"/>
      <point x="118" y="-12"/>
      <point x="145" y="56"/>
      <point x="145" y="212" type="curve" smooth="yes"/>
      <point x="145" y="360"/>
      <point x="122" y="440"/>
      <point x="78" y="440" type="curve" smooth="yes"/>
      <point x="53" y="440"/>
      <point x="34" y="410"/>
      <point x="21" y="355" type="curve"/>
    </contour>
    <contour>
      <point x="23" y="274" type="line"/>
      <point x="23" y="351"/>
      <point x="51" y="428"/>
      <point x="81" y="428" type="curve" smooth="yes"/>
      <point x="121" y="428"/>
      <point x="132" y="303"/>
      <point x="132" y="212" type="curve" smooth="yes"/>
      <point x="132" y="134"/>
      <point x="126" y="0"/>
      <point x="80" y="0" type="curve" smooth="yes"/>
      <point x="48" y="0"/>
      <point x="23" y="99"/>
      <point x="23" y="273" type="curve"/>
    </contour>
  </outline>
</glyph>
<glyph name="seven" format="1">
  <advance width="154"/>
  <unicode hex="0037"/>
  <outline>
    <contour>
      <point x="146" y="692" type="line"/>
      <point x="4" y="692" type="line"/>
      <point x="4" y="679" type="line"/>
      <point x="132" y="679" type="line"/>
      <point x="132" y="677" type="line"/>
      <point x="37" y="0" type="line"/>
      <point x="54" y="0" type="line"/>
      <point x="146" y="681" type="line"/>
    </contour>
  </outline>
</glyph>
<glyph name="eight" format="1">
  <advance width="150"/>
  <unicode hex="0038"/>
  <outline>
    <contour>
      <point x="65" y="368" type="line"/>
      <point x="54" y="365"/>
      <point x="9" y="334"/>
      <point x="9" y="184" type="curve" smooth="yes"/>
      <point x="9" y="47"/>
      <point x="39" y="-12"/>
      <point x="75" y="-12" type="curve" smooth="yes"/>
      <point x="110" y="-12"/>
      <point x="141" y="48"/>
      <point x="141" y="184" type="curve" smooth="yes"/>
      <point x="141" y="323"/>
      <point x="100" y="364"/>
      <point x="85" y="368" type="curve"/>
      <point x="85" y="369" type="line"/>
      <point x="88" y="371"/>
      <point x="134" y="380"/>
      <point x="134" y="532" type="curve" smooth="yes"/>
      <point x="134" y="647"/>
      <point x="109" y="705"/>
      <point x="75" y="705" type="curve" smooth="yes"/>
      <point x="43" y="705"/>
      <point x="16" y="650"/>
      <point x="16" y="532" type="curve" smooth="yes"/>
      <point x="16" y="387"/>
      <point x="59" y="372"/>
      <point x="65" y="369" type="curve"/>
    </contour>
    <contour>
      <point x="30" y="533" type="line"/>
      <point x="30" y="646"/>
      <point x="53" y="693"/>
      <point x="75" y="693" type="curve" smooth="yes"/>
      <point x="100" y="693"/>
      <point x="120" y="636"/>
      <point x="120" y="533" type="curve" smooth="yes"/>
      <point x="120" y="392"/>
      <point x="86" y="375"/>
      <point x="75" y="375" type="curve" smooth="yes"/>
      <point x="56" y="375"/>
      <point x="30" y="406"/>
      <point x="30" y="532" type="curve"/>
    </contour>
    <contour>
      <point x="22" y="182" type="line"/>
      <point x="22" y="313"/>
      <point x="54" y="363"/>
      <point x="75" y="363" type="curve" smooth="yes"/>
      <point x="93" y="363"/>
      <point x="128" y="316"/>
      <point x="128" y="182" type="curve" smooth="yes"/>
      <point x="128" y="58"/>
      <point x="102" y="0"/>
      <point x="75" y="0" type="curve" smooth="yes"/>
      <point x="50" y="0"/>
      <point x="22" y="54"/>
      <point x="22" y="181" type="curve"/>
    </contour>
  </outline>
</glyph>
<glyph name="nine" format="1">
  <advance width="150"/>
  <unicode hex="0039"/>
  <outline>
    <contour>
      <point x="130" y="338" type="line"/>
      <point x="128" y="87"/>
      <point x="99" y="0"/>
      <point x="66" y="0" type="curve" smooth="yes"/>
      <point x="28" y="0"/>
      <point x="26" y="57"/>
      <point x="27" y="101" type="curve"/>
      <point x="14" y="101" type="line"/>
      <point x="12" y="31"/>
      <point x="28" y="-12"/>
      <point x="66" y="-12" type="curve" smooth="yes"/>
      <point x="131" y="-12"/>
      <point x="142" y="150"/>
      <point x="142" y="396" type="curve" smooth="yes"/>
      <point x="142" y="669"/>
      <point x="95" y="705"/>
      <point x="69" y="705" type="curve" smooth="yes"/>
      <point x="33" y="705"/>
      <point x="4" y="643"/>
      <point x="4" y="481" type="curve" smooth="yes"/>
      <point x="4" y="386"/>
      <point x="15" y="253"/>
      <point x="71" y="253" type="curve" smooth="yes"/>
      <point x="109" y="253"/>
      <point x="123" y="312"/>
      <point x="129" y="338" type="curve"/>
    </contour>
    <contour>
      <point x="127" y="411" type="line"/>
      <point x="127" y="364"/>
      <point x="108" y="265"/>
      <point x="68" y="265" type="curve" smooth="yes"/>
      <point x="25" y="265"/>
      <point x="18" y="402"/>
      <point x="18" y="481" type="curve" smooth="yes"/>
      <point x="18" y="599"/>
      <point x="32" y="693"/>
      <point x="69" y="693" type="curve" smooth="yes"/>
      <point x="89" y="693"/>
      <point x="127" y="644"/>
      <point x="127" y="412" type="curve"/>
    </contour>
  </outline>
</glyph>
<glyph name="colon" format="1">
  <advance width="41"/>
  <unicode hex="003A"/>
  <outline>
    <contour>
      <point x="14" y="487" type="line"/>
      <point x="14" y="410" type="line"/>
      <point x="27" y="410" type="line"/>
      <point x="27" y="487" type="line"/>
    </contour>
    <contour>
      <point x="14" y="77" type="line"/>
      <point x="14" y="0" type="line"/>
      <point x="27" y="0" type="line"/>
      <point x="27" y="77" type="line"/>
    </contour>
  </outline>
</glyph>
<glyph name="semicolon" format="1">
  <advance width="41"/>
  <unicode hex="003B"/>
  <outline>
    <contour>
      <point x="17" y="487" type="line"/>
      <point x="17" y="410" type="line"/>
      <point x="30" y="410" type="line"/>
      <point x="30" y="487" type="line"/>
    </contour>
    <contour>
      <point x="5" y="-77" type="line"/>
      <point x="13" y="-77" type="line"/>
      <point x="37" y="77" type="line"/>
      <point x="20" y="77" type="line"/>
    </contour>
  </outline>
</glyph>
<glyph name="question" format="1">
  <advance width="107"/>
  <unicode hex="003F"/>
  <outline>
    <contour>
      <point x="57" y="152" type="line"/>
      <point x="52" y="254"/>
      <point x="68" y="339"/>
      <point x="79" y="405" type="curve" smooth="yes"/>
      <point x="93" y="475"/>
      <point x="104" y="526"/>
      <point x="104" y="591" type="curve" smooth="yes"/>
      <point x="104" y="638"/>
      <point x="101" y="715"/>
      <point x="54" y="715" type="curve" smooth="yes"/>
      <point x="33" y="715"/>
      <point x="-1" y="684"/>
      <point x="0" y="568" type="curve"/>
      <point x="12" y="565" type="line"/>
      <point x="11" y="644"/>
      <point x="28" y="702"/>
      <point x="56" y="702" type="curve" smooth="yes"/>
      <point x="74" y="702"/>
      <point x="91" y="672"/>
      <point x="91" y="596" type="curve" smooth="yes"/>
      <point x="91" y="530"/>
      <point x="83" y="491"/>
      <point x="67" y="411" type="curve" smooth="yes"/>
      <point x="49" y="315"/>
      <point x="45" y="227"/>
      <point x="48" y="152" type="curve"/>
    </contour>
    <contour>
      <point x="47" y="77" type="line"/>
      <point x="47" y="0" type="line"/>
      <point x="60" y="0" type="line"/>
      <point x="60" y="77" type="line"/>
    </contour>
  </outline>
</glyph>
<glyph name="at" format="1">
  <advance width="315"/>
  <unicode hex="0040"/>
  <outline>
    <contour>
      <point x="239" y="191" type="line"/>
      <point x="225" y="184"/>
      <point x="199" y="168"/>
      <point x="151" y="168" type="curve" smooth="yes"/>
      <point x="79" y="168"/>
      <point x="24" y="217"/>
      <point x="24" y="311" type="curve" smooth="yes"/>
      <point x="24" y="353"/>
      <point x="39" y="397"/>
      <point x="67" y="429" type="curve" smooth="yes"/>
      <point x="96" y="462"/>
      <point x="137" y="484"/>
      <point x="187" y="484" type="curve" smooth="yes"/>
      <point x="219" y="484"/>
      <point x="247" y="475"/>
      <point x="267" y="457" type="curve" smooth="yes"/>
      <point x="285" y="441"/>
      <point x="297" y="416"/>
      <point x="297" y="380" type="curve" smooth="yes"/>
      <point x="297" y="339"/>
      <point x="276" y="299"/>
      <point x="258" y="280" type="curve" smooth="yes"/>
      <point x="244" y="265"/>
      <point x="229" y="254"/>
      <point x="216" y="254" type="curve" smooth="yes"/>
      <point x="199" y="254"/>
      <point x="198" y="266"/>
      <point x="208" y="295" type="curve" smooth="yes"/>
      <point x="251" y="424" type="line"/>
      <point x="234" y="424" type="line"/>
      <point x="229" y="405" type="line"/>
      <point x="227" y="405" type="line"/>
      <point x="222" y="420"/>
      <point x="209" y="425"/>
      <point x="193" y="425" type="curve" smooth="yes"/>
      <point x="169" y="425"/>
      <point x="146" y="417"/>
      <point x="120" y="388" type="curve" smooth="yes"/>
      <point x="100" y="364"/>
      <point x="78" y="330"/>
      <point x="78" y="286" type="curve" smooth="yes"/>
      <point x="78" y="259"/>
      <point x="90" y="240"/>
      <point x="119" y="240" type="curve" smooth="yes"/>
      <point x="151" y="240"/>
      <point x="180" y="269"/>
      <point x="190" y="289" type="curve"/>
      <point x="192" y="289" type="line"/>
      <point x="187" y="279"/>
      <point x="183" y="263"/>
      <point x="191" y="251" type="curve" smooth="yes"/>
      <point x="195" y="245"/>
      <point x="201" y="240"/>
      <point x="214" y="240" type="curve" smooth="yes"/>
      <point x="238" y="240"/>
      <point x="263" y="258"/>
      <point x="281" y="285" type="curve" smooth="yes"/>
      <point x="298" y="311"/>
      <point x="310" y="345"/>
      <point x="310" y="379" type="curve" smooth="yes"/>
      <point x="310" y="454"/>
      <point x="262" y="498"/>
      <point x="187" y="498" type="curve" smooth="yes"/>
      <point x="83" y="498"/>
      <point x="8" y="411"/>
      <point x="8" y="311" type="curve" smooth="yes"/>
      <point x="8" y="207"/>
      <point x="77" y="155"/>
      <point x="151" y="155" type="curve" smooth="yes"/>
      <point x="187" y="155"/>
      <point x="220" y="165"/>
      <point x="247" y="183" type="curve"/>
    </contour>
    <contour>
      <point x="94" y="284" type="line"/>
      <point x="94" y="314"/>
      <point x="106" y="348"/>
      <point x="134" y="379" type="curve"/>
      <point x="153" y="404"/>
      <point x="176" y="411"/>
      <point x="192" y="411" type="curve" smooth="yes"/>
      <point x="214" y="411"/>
      <point x="222" y="401"/>
      <point x="222" y="390" type="curve" smooth="yes"/>
      <point x="222" y="385"/>
      <point x="215" y="368"/>
      <point x="205" y="337" type="curve" smooth="yes"/>
      <point x="196" y="308"/>
      <point x="154" y="253"/>
      <point x="116" y="253" type="curve" smooth="yes"/>
      <point x="101" y="253"/>
      <point x="94" y="264"/>
      <point x="94" y="283" type="curve"/>
    </contour>
  </outline>
</glyph>
<glyph name="A" format="1">
  <advance width="420"/>
  <unicode hex="0041"/>
  <outline>
    <contour>
      <point x="30" y="0" type="line"/>
      <point x="70" y="0" type="line"/>
      <point x="200" y="700" type="line"/>
      <point x="165" y="700" type="line"/>
    </contour>
    <contour>
      <point x="85" y="164" type="line"/>
      <point x="335" y="164" type="line"/>
      <point x="335" y="200" type="line"/>
      <point x="85" y="200" type="line"/>
    </contour>
    <contour>
      <point x="342" y="0" type="line"/>
      <point x="390" y="0" type="line"/>
      <point x="255" y="700" type="line"/>
      <point x="212" y="700" type="line"/>
    </contour>
    <contour>
      <point x="175" y="661" type="line"/>
      <point x="245" y="661" type="line"/>
      <point x="245" y="700" type="line"/>
      <point x="175" y="700" type="line"/>
    </contour>
  </outline>
</glyph>
<glyph name="B" format="1">
  <advance width="423"/>
  <unicode hex="0042"/>
  <outline>
    <contour>
      <point x="40" y="0" type="line"/>
      <point x="80" y="0" type="line"/>
      <point x="80" y="700" type="line"/>
      <point x="40" y="700" type="line"/>
    </contour>
    <contour>
      <point x="60" y="333" type="line"/>
      <point x="170" y="333" type="line" smooth="yes"/>
      <point x="289" y="333"/>
      <point x="344" y="269"/>
      <point x="344" y="183" type="curve" smooth="yes"/>
      <point x="344" y="97"/>
      <point x="289" y="36"/>
      <point x="170" y="36" type="curve" smooth="yes"/>
      <point x="60" y="36" type="line"/>
      <point x="60" y="0" type="line"/>
      <point x="160" y="0" type="line" smooth="yes"/>
      <point x="320" y="0"/>
      <point x="383" y="83"/>
      <point x="383" y="183" type="curve" smooth="yes"/>
      <point x="383" y="273"/>
      <point x="328" y="345"/>
      <point x="205" y="361" type="curve"/>
      <point x="205" y="350" type="line"/>
      <point x="299" y="376"/>
      <point x="343" y="439"/>
      <point x="343" y="517" type="curve" smooth="yes"/>
      <point x="343" y="618"/>
      <point x="280" y="700"/>
      <point x="120" y="700" type="curve" smooth="yes"/>
      <point x="60" y="700" type="line"/>
      <point x="60" y="664" type="line"/>
      <point x="130" y="664" type="line" smooth="yes"/>
      <point x="249" y="664"/>
      <point x="304" y="603"/>
      <point x="304" y="517" type="curve" smooth="yes"/>
      <point x="304" y="431"/>
      <point x="249" y="368"/>
      <point x="130" y="368" type="curve" smooth="yes"/>
      <point x="60" y="368" type="line"/>
    </contour>
  </outline>
</glyph>
<glyph name="C" format="1">
  <advance width="489"/>
  <unicode hex="0043"/>
  <outline>
    <contour>
      <point x="405" y="264" type="line"/>
      <point x="392" y="85"/>
      <point x="335" y="26"/>
      <point x="252" y="26" type="curve" smooth="yes"/>
      <point x="241" y="26" type="line" smooth="yes"/>
      <point x="147" y="26"/>
      <point x="85" y="104"/>
      <point x="85" y="352" type="curve" smooth="yes"/>
      <point x="85" y="599"/>
      <point x="147" y="674"/>
      <point x="241" y="674" type="curve" smooth="yes"/>
      <point x="252" y="674" type="line" smooth="yes"/>
      <point x="334" y="674"/>
      <point x="391" y="618"/>
      <point x="405" y="442" type="curve"/>
      <point x="444" y="447" type="line"/>
      <point x="427" y="638"/>
      <point x="356" y="710"/>
      <point x="252" y="710" type="curve" smooth="yes"/>
      <point x="241" y="710" type="line" smooth="yes"/>
      <point x="120" y="710"/>
      <point x="45" y="615"/>
      <point x="45" y="352" type="curve" smooth="yes"/>
      <point x="45" y="88"/>
      <point x="120" y="-10"/>
      <point x="241" y="-10" type="curve" smooth="yes"/>
      <point x="252" y="-10" type="line" smooth="yes"/>
      <point x="357" y="-10"/>
      <point x="428" y="64"/>
      <point x="444" y="258" type="curve"/>
    </contour>
  </outline>
</glyph>
<glyph name="D" format="1">
  <advance width="428"/>
  <unicode hex="0044"/>
  <outline>
    <contour>
      <point x="40" y="0" type="line"/>
      <point x="80" y="0" type="line"/>
      <point x="80" y="700" type="line"/>
      <point x="40" y="700" type="line"/>
    </contour>
    <contour>
      <point x="66" y="664" type="line"/>
      <point x="147" y="664" type="line" smooth="yes"/>
      <point x="260" y="664"/>
      <point x="343" y="599"/>
      <point x="343" y="352" type="curve" smooth="yes"/>
      <point x="343" y="104"/>
      <point x="260" y="36"/>
      <point x="147" y="36" type="curve" smooth="yes"/>
      <point x="66" y="36" type="line"/>
      <point x="66" y="0" type="line"/>
      <point x="147" y="0" type="line" smooth="yes"/>
      <point x="285" y="0"/>
      <point x="383" y="88"/>
      <point x="383" y="352" type="curve" smooth="yes"/>
      <point x="383" y="615"/>
      <point x="285" y="700"/>
      <point x="147" y="700" type="curve" smooth="yes"/>
      <point x="66" y="700" type="line"/>
    </contour>
  </outline>
</glyph>
<glyph name="E" format="1">
  <advance width="360"/>
  <unicode hex="0045"/>
  <outline>
    <contour>
      <point x="40" y="0" type="line"/>
      <point x="80" y="0" type="line"/>
      <point x="80" y="700" type="line"/>
      <point x="40" y="700" type="line"/>
    </contour>
    <contour>
      <point x="60" y="664" type="line"/>
      <point x="320" y="664" type="line"/>
      <point x="320" y="700" type="line"/>
      <point x="60" y="700" type="line"/>
    </contour>
    <contour>
      <point x="60" y="0" type="line"/>
      <point x="320" y="0" type="line"/>
      <point x="320" y="36" type="line"/>
      <point x="60" y="36" type="line"/>
    </contour>
    <contour>
      <point x="60" y="334" type="line"/>
      <point x="300" y="334" type="line"/>
      <point x="300" y="370" type="line"/>
      <point x="60" y="370" type="line"/>
    </contour>
  </outline>
</glyph>
<glyph name="F" format="1">
  <advance width="360"/>
  <unicode hex="0046"/>
  <outline>
    <contour>
      <point x="40" y="0" type="line"/>
      <point x="80" y="0" type="line"/>
      <point x="80" y="700" type="line"/>
      <point x="40" y="700" type="line"/>
    </contour>
    <contour>
      <point x="60" y="664" type="line"/>
      <point x="320" y="664" type="line"/>
      <point x="320" y="700" type="line"/>
      <point x="60" y="700" type="line"/>
    </contour>
    <contour>
      <point x="60" y="314" type="line"/>
      <point x="300" y="314" type="line"/>
      <point x="300" y="350" type="line"/>
      <point x="60" y="350" type="line"/>
    </contour>
  </outline>
</glyph>
<glyph name="G" format="1">
  <advance width="150"/>
  <unicode hex="0047"/>
  <outline>
    <contour>
      <point x="133" y="308" type="line"/>
      <point x="82" y="308" type="line"/>
      <point x="82" y="293" type="line"/>
      <point x="117" y="293" type="line"/>
      <point x="117" y="24" type="line"/>
      <point x="113" y="13"/>
      <point x="102" y="-1"/>
      <point x="86" y="-1" type="curve" smooth="yes"/>
      <point x="46" y="-1"/>
      <point x="32" y="110"/>
      <point x="32" y="355" type="curve" smooth="yes"/>
      <point x="32" y="601"/>
      <point x="48" y="710"/>
      <point x="82" y="710" type="curve" smooth="yes"/>
      <point x="107" y="710"/>
      <point x="116" y="673"/>
      <point x="116" y="580" type="curve"/>
      <point x="133" y="580" type="line"/>
      <point x="132" y="675"/>
      <point x="117" y="723"/>
      <point x="82" y="723" type="curve" smooth="yes"/>
      <point x="47" y="723"/>
      <point x="17" y="667"/>
      <point x="17" y="353" type="curve" smooth="yes"/>
      <point x="17" y="75"/>
      <point x="35" y="-14"/>
      <point x="85" y="-14" type="curve" smooth="yes"/>
      <point x="113" y="-14"/>
      <point x="128" y="13"/>
      <point x="133" y="24" type="curve"/>
    </contour>
  </outline>
</glyph>
<glyph name="H" format="1">
  <advance width="420"/>
  <unicode hex="0048"/>
  <outline>
    <contour>
      <point x="40" y="0" type="line"/>
      <point x="80" y="0" type="line"/>
      <point x="80" y="700" type="line"/>
      <point x="40" y="700" type="line"/>
    </contour>
    <contour>
      <point x="60" y="334" type="line"/>
      <point x="360" y="334" type="line"/>
      <point x="360" y="370" type="line"/>
      <point x="60" y="370" type="line"/>
    </contour>
    <contour>
      <point x="340" y="0" type="line"/>
      <point x="380" y="0" type="line"/>
      <point x="380" y="700" type="line"/>
      <point x="340" y="700" type="line"/>
    </contour>
  </outline>
</glyph>
<glyph name="I" format="1">
  <advance width="280"/>
  <unicode hex="0049"/>
  <outline>
    <contour>
      <point x="120" y="0" type="line"/>
      <point x="160" y="0" type="line"/>
      <point x="160" y="700" type="line"/>
      <point x="120" y="700" type="line"/>
    </contour>
    <contour>
      <point x="40" y="664" type="line"/>
      <point x="240" y="664" type="line"/>
      <point x="240" y="700" type="line"/>
      <point x="40" y="700" type="line"/>
    </contour>
    <contour>
      <point x="40" y="0" type="line"/>
      <point x="240" y="0" type="line"/>
      <point x="240" y="36" type="line"/>
      <point x="40" y="36" type="line"/>
    </contour>
  </outline>
</glyph>
<glyph name="J" format="1">
  <advance width="343"/>
  <unicode hex="004A"/>
  <outline>
    <contour>
      <point x="102" y="-10" type="curve" smooth="yes"/>
      <point x="227" y="-10"/>
      <point x="303" y="48"/>
      <point x="303" y="222" type="curve" smooth="yes"/>
      <point x="303" y="700" type="line"/>
      <point x="263" y="700" type="line"/>
      <point x="263" y="222" type="line" smooth="yes"/>
      <point x="263" y="68"/>
      <point x="202" y="26"/>
      <point x="102" y="26" type="curve" smooth="yes"/>
      <point x="84" y="26"/>
      <point x="67" y="28"/>
      <point x="52" y="32" type="curve"/>
      <point x="40" y="-3" type="line"/>
      <point x="59" y="-8"/>
      <point x="80" y="-10"/>
    </contour>
  </outline>
</glyph>
<glyph name="K" format="1">
  <advance width="407"/>
  <unicode hex="004B"/>
  <outline>
    <contour>
      <point x="40" y="0" type="line"/>
      <point x="80" y="0" type="line"/>
      <point x="80" y="700" type="line"/>
      <point x="40" y="700" type="line"/>
    </contour>
    <contour>
      <point x="54" y="334" type="line"/>
      <point x="125" y="334" type="line"/>
      <point x="338" y="0" type="line"/>
      <point x="387" y="0" type="line"/>
      <point x="140" y="370" type="line"/>
      <point x="134" y="370" type="line"/>
      <point x="54" y="370" type="line"/>
    </contour>
    <contour>
      <point x="104" y="353" type="line"/>
      <point x="131" y="338" type="line"/>
      <point x="379" y="700" type="line"/>
      <point x="333" y="700" type="line"/>
    </contour>
  </outline>
</glyph>
<glyph name="L" format="1">
  <advance width="360"/>
  <unicode hex="004C"/>
  <outline>
    <contour>
      <point x="40" y="0" type="line"/>
      <point x="80" y="0" type="line"/>
      <point x="80" y="700" type="line"/>
      <point x="40" y="700" type="line"/>
    </contour>
    <contour>
      <point x="60" y="0" type="line"/>
      <point x="320" y="0" type="line"/>
      <point x="320" y="36" type="line"/>
      <point x="60" y="36" type="line"/>
    </contour>
  </outline>
</glyph>
<glyph name="M" format="1">
  <advance width="450"/>
  <unicode hex="004D"/>
  <outline>
    <contour>
      <point x="40" y="0" type="line"/>
      <point x="80" y="0" type="line"/>
      <point x="80" y="700" type="line"/>
      <point x="40" y="700" type="line"/>
    </contour>
    <contour>
      <point x="410" y="0" type="line"/>
      <point x="410" y="700" type="line"/>
      <point x="370" y="700" type="line"/>
      <point x="370" y="0" type="line"/>
    </contour>
    <contour>
      <point x="394" y="646" type="line"/>
      <point x="370" y="700" type="line"/>
      <point x="213" y="342" type="line"/>
      <point x="237" y="342" type="line"/>
      <point x="80" y="700" type="line"/>
      <point x="56" y="646" type="line"/>
      <point x="211" y="294" type="line"/>
      <point x="239" y="294" type="line"/>
    </contour>
  </outline>
</glyph>
<glyph name="N" format="1">
  <advance width="420"/>
  <unicode hex="004E"/>
  <outline>
    <contour>
      <point x="40" y="0" type="line"/>
      <point x="75" y="0" type="line"/>
      <point x="75" y="700" type="line"/>
      <point x="40" y="700" type="line"/>
    </contour>
    <contour>
      <point x="56" y="646" type="line"/>
      <point x="345" y="0" type="line"/>
      <point x="364" y="54" type="line"/>
      <point x="75" y="700" type="line"/>
    </contour>
    <contour>
      <point x="345" y="0" type="line"/>
      <point x="380" y="0" type="line"/>
      <point x="380" y="700" type="line"/>
      <point x="345" y="700" type="line"/>
    </contour>
  </outline>
</glyph>
<glyph name="O" format="1">
  <advance width="493"/>
  <unicode hex="004F"/>
  <outline>
    <contour>
      <point x="241" y="-10" type="curve" smooth="yes"/>
      <point x="252" y="-10" type="line" smooth="yes"/>
      <point x="372" y="-10"/>
      <point x="448" y="88"/>
      <point x="448" y="352" type="curve" smooth="yes"/>
      <point x="448" y="615"/>
      <point x="372" y="710"/>
      <point x="252" y="710" type="curve" smooth="yes"/>
      <point x="241" y="710" type="line" smooth="yes"/>
      <point x="120" y="710"/>
      <point x="45" y="615"/>
      <point x="45" y="352" type="curve" smooth="yes"/>
      <point x="45" y="88"/>
      <point x="120" y="-10"/>
    </contour>
    <contour>
      <point x="241" y="26" type="line" smooth="yes"/>
      <point x="147" y="26"/>
      <point x="85" y="104"/>
      <point x="85" y="352" type="curve" smooth="yes"/>
      <point x="85" y="599"/>
      <point x="147" y="674"/>
      <point x="241" y="674" type="curve" smooth="yes"/>
      <point x="252" y="674" type="line" smooth="yes"/>
      <point x="347" y="674"/>
      <point x="408" y="599"/>
      <point x="408" y="352" type="curve" smooth="yes"/>
      <point x="408" y="104"/>
      <point x="347" y="26"/>
      <point x="252" y="26" type="curve" smooth="yes"/>
    </contour>
  </outline>
</glyph>
<glyph name="P" format="1">
  <advance width="383"/>
  <unicode hex="0050"/>
  <outline>
    <contour>
      <point x="40" y="0" type="line"/>
      <point x="80" y="0" type="line"/>
      <point x="80" y="700" type="line"/>
      <point x="40" y="700" type="line"/>
    </contour>
    <contour>
      <point x="60" y="660" type="line"/>
      <point x="130" y="660" type="line" smooth="yes"/>
      <point x="249" y="660"/>
      <point x="304" y="565"/>
      <point x="304" y="432" type="curve" smooth="yes"/>
      <point x="304" y="299"/>
      <point x="249" y="205"/>
      <point x="130" y="205" type="curve" smooth="yes"/>
      <point x="60" y="205" type="line"/>
      <point x="60" y="165" type="line"/>
      <point x="120" y="165" type="line" smooth="yes"/>
      <point x="280" y="165"/>
      <point x="343" y="286"/>
      <point x="343" y="432" type="curve" smooth="yes"/>
      <point x="343" y="580"/>
      <point x="280" y="700"/>
      <point x="120" y="700" type="curve" smooth="yes"/>
      <point x="60" y="700" type="line"/>
    </contour>
  </outline>
</glyph>
<glyph name="Q" format="1">
  <advance width="171"/>
  <unicode hex="0051"/>
  <outline>
    <contour>
      <point x="127" y="30" type="line"/>
      <point x="145" y="80"/>
      <point x="154" y="180"/>
      <point x="154" y="354" type="curve" smooth="yes"/>
      <point x="154" y="643"/>
      <point x="128" y="723"/>
      <point x="86" y="723" type="curve" smooth="yes"/>
      <point x="43" y="723"/>
      <point x="17" y="643"/>
      <point x="17" y="354" type="curve" smooth="yes"/>
      <point x="17" y="66"/>
      <point x="43" y="-14"/>
      <point x="86" y="-14" type="curve" smooth="yes"/>
      <point x="99" y="-14"/>
      <point x="112" y="-6"/>
      <point x="121" y="14" type="curve"/>
      <point x="166" y="-88" type="line"/>
      <point x="178" y="-81" type="line"/>
    </contour>
    <contour>
      <point x="86" y="710" type="line"/>
      <point x="116" y="710"/>
      <point x="139" y="630"/>
      <point x="139" y="354" type="curve" smooth="yes"/>
      <point x="139" y="79"/>
      <point x="116" y="-1"/>
      <point x="86" y="-1" type="curve" smooth="yes"/>
      <point x="56" y="-1"/>
      <point x="32" y="79"/>
      <point x="32" y="354" type="curve" smooth="yes"/>
      <point x="32" y="630"/>
      <point x="56" y="710"/>
      <point x="85" y="710" type="curve"/>
    </contour>
  </outline>
</glyph>
<glyph name="R" format="1">
  <advance width="394"/>
  <unicode hex="0052"/>
  <outline>
    <contour>
      <point x="310" y="0" type="line"/>
      <point x="354" y="0" type="line"/>
      <point x="260" y="138" type="line" smooth="yes"/>
      <point x="232" y="179"/>
      <point x="214" y="195"/>
      <point x="192" y="195" type="curve"/>
      <point x="173" y="195" type="line"/>
    </contour>
    <contour>
      <point x="40" y="0" type="line"/>
      <point x="80" y="0" type="line"/>
      <point x="80" y="700" type="line"/>
      <point x="40" y="700" type="line"/>
    </contour>
    <contour>
      <point x="60" y="660" type="line"/>
      <point x="130" y="660" type="line" smooth="yes"/>
      <point x="249" y="660"/>
      <point x="304" y="565"/>
      <point x="304" y="432" type="curve" smooth="yes"/>
      <point x="304" y="299"/>
      <point x="249" y="205"/>
      <point x="130" y="205" type="curve" smooth="yes"/>
      <point x="60" y="205" type="line"/>
      <point x="60" y="165" type="line"/>
      <point x="120" y="165" type="line" smooth="yes"/>
      <point x="280" y="165"/>
      <point x="343" y="286"/>
      <point x="343" y="432" type="curve" smooth="yes"/>
      <point x="343" y="580"/>
      <point x="280" y="700"/>
      <point x="120" y="700" type="curve" smooth="yes"/>
      <point x="60" y="700" type="line"/>
    </contour>
  </outline>
</glyph>
<glyph name="S" format="1">
  <advance width="387"/>
  <unicode hex="0053"/>
  <outline>
    <contour>
      <point x="342" y="157" type="curve" smooth="yes"/>
      <point x="342" y="256"/>
      <point x="289" y="297"/>
      <point x="233" y="343" type="curve" smooth="yes"/>
      <point x="168" y="397" type="line" smooth="yes"/>
      <point x="118" y="438"/>
      <point x="85" y="474"/>
      <point x="85" y="544" type="curve" smooth="yes"/>
      <point x="85" y="626"/>
      <point x="137" y="673"/>
      <point x="210" y="673" type="curve" smooth="yes"/>
      <point x="218" y="673" type="line" smooth="yes"/>
      <point x="258" y="673"/>
      <point x="283" y="664"/>
      <point x="329" y="640" type="curve"/>
      <point x="342" y="676" type="line"/>
      <point x="306" y="694"/>
      <point x="277" y="710"/>
      <point x="218" y="710" type="curve" smooth="yes"/>
      <point x="211" y="710" type="line" smooth="yes"/>
      <point x="105" y="710"/>
      <point x="45" y="628"/>
      <point x="45" y="543" type="curve" smooth="yes"/>
      <point x="45" y="448"/>
      <point x="92" y="406"/>
      <point x="145" y="362" type="curve" smooth="yes"/>
      <point x="211" y="308" type="line" smooth="yes"/>
      <point x="265" y="264"/>
      <point x="301" y="229"/>
      <point x="301" y="156" type="curve" smooth="yes"/>
      <point x="301" y="75"/>
      <point x="259" y="28"/>
      <point x="187" y="28" type="curve" smooth="yes"/>
      <point x="179" y="28" type="line" smooth="yes"/>
      <point x="133" y="28"/>
      <point x="101" y="37"/>
      <point x="58" y="61" type="curve"/>
      <point x="45" y="24" type="line"/>
      <point x="82" y="5"/>
      <point x="121" y="-10"/>
      <point x="183" y="-10" type="curve" smooth="yes"/>
      <point x="190" y="-10" type="line" smooth="yes"/>
      <point x="292" y="-10"/>
      <point x="342" y="72"/>
    </contour>
  </outline>
</glyph>
<glyph name="T" format="1">
  <advance width="400"/>
  <unicode hex="0054"/>
  <outline>
    <contour>
      <point x="180" y="0" type="line"/>
      <point x="220" y="0" type="line"/>
      <point x="220" y="700" type="line"/>
      <point x="180" y="700" type="line"/>
    </contour>
    <contour>
      <point x="40" y="664" type="line"/>
      <point x="360" y="664" type="line"/>
      <point x="360" y="700" type="line"/>
      <point x="40" y="700" type="line"/>
    </contour>
  </outline>
</glyph>
<glyph name="U" format="1">
  <advance width="423"/>
  <unicode hex="0055"/>
  <outline>
    <contour>
      <point x="212" y="-10" type="curve" smooth="yes"/>
      <point x="318" y="-10"/>
      <point x="383" y="38"/>
      <point x="383" y="182" type="curve" smooth="yes"/>
      <point x="383" y="700" type="line"/>
      <point x="343" y="700" type="line"/>
      <point x="343" y="182" type="line" smooth="yes"/>
      <point x="343" y="60"/>
      <point x="293" y="26"/>
      <point x="212" y="26" type="curve" smooth="yes"/>
      <point x="131" y="26"/>
      <point x="80" y="60"/>
      <point x="80" y="182" type="curve" smooth="yes"/>
      <point x="80" y="700" type="line"/>
      <point x="40" y="700" type="line"/>
      <point x="40" y="182" type="line" smooth="yes"/>
      <point x="40" y="38"/>
      <point x="104" y="-10"/>
    </contour>
  </outline>
</glyph>
<glyph name="V" format="1">
  <advance width="420"/>
  <unicode hex="0056"/>
  <outline>
    <contour>
      <point x="390" y="700" type="line"/>
      <point x="345" y="700" type="line"/>
      <point x="215" y="0" type="line"/>
      <point x="255" y="0" type="line"/>
    </contour>
    <contour>
      <point x="75" y="700" type="line"/>
      <point x="30" y="700" type="line"/>
      <point x="165" y="0" type="line"/>
      <point x="205" y="0" type="line"/>
    </contour>
    <contour>
      <point x="245" y="39" type="line"/>
      <point x="175" y="39" type="line"/>
      <point x="175" y="0" type="line"/>
      <point x="245" y="0" type="line"/>
    </contour>
  </outline>
</glyph>
<glyph name="W" format="1">
  <advance width="161"/>
  <unicode hex="0057"/>
  <outline>
    <contour>
      <point x="82" y="692" type="line"/>
      <point x="84" y="570"/>
      <point x="87" y="463"/>
      <point x="92" y="347" type="curve" smooth="yes"/>
      <point x="105" y="0" type="line"/>
      <point x="127" y="0" type="line"/>
      <point x="162" y="709" type="line"/>
      <point x="148" y="709" type="line"/>
      <point x="132" y="354" type="line" smooth="yes"/>
      <point x="127" y="239"/>
      <point x="121" y="130"/>
      <point x="118" y="14" type="curve"/>
      <point x="116" y="14" type="line"/>
      <point x="113" y="128"/>
      <point x="109" y="240"/>
      <point x="105" y="356" type="curve" smooth="yes"/>
      <point x="91" y="709" type="line"/>
      <point x="71" y="709" type="line"/>
      <point x="59" y="361" type="line" smooth="yes"/>
      <point x="55" y="246"/>
      <point x="49" y="129"/>
      <point x="50" y="14" type="curve"/>
      <point x="48" y="14" type="line"/>
      <point x="44" y="129"/>
      <point x="36" y="245"/>
      <point x="31" y="361" type="curve" smooth="yes"/>
      <point x="14" y="709" type="line"/>
      <point x="-1" y="709" type="line"/>
      <point x="37" y="0" type="line"/>
      <point x="59" y="0" type="line"/>
      <point x="69" y="340" type="line" smooth="yes"/>
      <point x="73" y="454"/>
      <point x="78" y="569"/>
      <point x="80" y="692" type="curve"/>
    </contour>
  </outline>
</glyph>
<glyph name="X" format="1">
  <advance width="135"/>
  <unicode hex="0058"/>
  <outline>
    <contour>
      <point x="68" y="405" type="line"/>
      <point x="67" y="405" type="line"/>
      <point x="14" y="709" type="line"/>
      <point x="1" y="709" type="line"/>
      <point x="61" y="361" type="line"/>
      <point x="-1" y="0" type="line"/>
      <point x="12" y="0" type="line"/>
      <point x="67" y="317" type="line"/>
      <point x="68" y="317" type="line"/>
      <point x="123" y="0" type="line"/>
      <point x="136" y="0" type="line"/>
      <point x="73" y="361" type="line"/>
      <point x="134" y="709" type="line"/>
      <point x="121" y="709" type="line"/>
    </contour>
  </outline>
</glyph>
<glyph name="Y" format="1">
  <advance width="117"/>
  <unicode hex="0059"/>
  <outline>
    <contour>
      <point x="118" y="709" type="line"/>
      <point x="105" y="709" type="line"/>
      <point x="82" y="524" type="line" smooth="yes"/>
      <point x="74" y="463"/>
      <point x="66" y="401"/>
      <point x="62" y="335" type="curve"/>
      <point x="60" y="335" type="line"/>
      <point x="52" y="402"/>
      <point x="44" y="463"/>
      <point x="36" y="525" type="curve" smooth="yes"/>
      <point x="12" y="709" type="line"/>
      <point x="-1" y="709" type="line"/>
      <point x="52" y="303" type="line"/>
      <point x="52" y="0" type="line"/>
      <point x="67" y="0" type="line"/>
      <point x="67" y="303" type="line"/>
    </contour>
  </outline>
</glyph>
<glyph name="Z" format="1">
  <advance width="121"/>
  <unicode hex="005A"/>
  <outline>
    <contour>
      <point x="5" y="0" type="line"/>
      <point x="114" y="0" type="line"/>
      <point x="114" y="14" type="line"/>
      <point x="20" y="14" type="line"/>
      <point x="111" y="694" type="line"/>
      <point x="111" y="709" type="line"/>
      <point x="13" y="709" type="line"/>
      <point x="13" y="695" type="line"/>
      <point x="97" y="695" type="line"/>
      <point x="5" y="16" type="line"/>
    </contour>
  </outline>
</glyph>
<glyph name="bracketleft" format="1">
  <advance width="64"/>
  <unicode hex="005B"/>
  <outline>
    <contour>
      <point x="83" y="-156" type="line"/>
      <point x="83" y="-144" type="line"/>
      <point x="40" y="-144" type="line"/>
      <point x="40" y="727" type="line"/>
      <point x="83" y="727" type="line"/>
      <point x="83" y="739" type="line"/>
      <point x="27" y="739" type="line"/>
      <point x="27" y="-156" type="line"/>
    </contour>
  </outline>
</glyph>
<glyph name="backslash" format="1">
  <advance width="128"/>
  <unicode hex="005C"/>
  <outline>
    <contour>
      <point x="-2" y="739" type="line"/>
      <point x="119" y="-12" type="line"/>
      <point x="134" y="-12" type="line"/>
      <point x="13" y="739" type="line"/>
    </contour>
  </outline>
</glyph>
<glyph name="bracketright" format="1">
  <advance width="61"/>
  <unicode hex="005D"/>
  <outline>
    <contour>
      <point x="-19" y="-156" type="line"/>
      <point x="37" y="-156" type="line"/>
      <point x="37" y="739" type="line"/>
      <point x="-19" y="739" type="line"/>
      <point x="-19" y="727" type="line"/>
      <point x="24" y="727" type="line"/>
      <point x="24" y="-144" type="line"/>
      <point x="-19" y="-144" type="line"/>
    </contour>
  </outline>
</glyph>
<glyph name="underscore" format="1">
  <advance width="202"/>
  <unicode hex="005F"/>
  <outline>
    <contour>
      <point x="202" y="-125" type="line"/>
      <point x="202" y="-75" type="line"/>
      <point x="0" y="-75" type="line"/>
      <point x="0" y="-125" type="line"/>
    </contour>
  </outline>
</glyph>
<glyph name="b" format="1">
  <advance width="141"/>
  <unicode hex="0062"/>
  <outline>
    <contour>
      <point x="19" y="0" type="line"/>
      <point x="30" y="0" type="line"/>
      <point x="29" y="42" type="line"/>
      <point x="31" y="42" type="line"/>
      <point x="36" y="23"/>
      <point x="45" y="-12"/>
      <point x="68" y="-12" type="curve" smooth="yes"/>
      <point x="97" y="-12"/>
      <point x="124" y="42"/>
      <point x="124" y="264" type="curve" smooth="yes"/>
      <point x="124" y="484"/>
      <point x="101" y="544"/>
      <point x="71" y="544" type="curve" smooth="yes"/>
      <point x="44" y="544"/>
      <point x="36" y="509"/>
      <point x="33" y="490" type="curve"/>
      <point x="32" y="490" type="line"/>
      <point x="32" y="727" type="line"/>
      <point x="19" y="727" type="line"/>
    </contour>
    <contour>
      <point x="32" y="442" type="line"/>
      <point x="37" y="479"/>
      <point x="50" y="532"/>
      <point x="71" y="532" type="curve" smooth="yes"/>
      <point x="93" y="532"/>
      <point x="110" y="455"/>
      <point x="111" y="264" type="curve" smooth="yes"/>
      <point x="112" y="74"/>
      <point x="92" y="0"/>
      <point x="71" y="0" type="curve" smooth="yes"/>
      <point x="52" y="0"/>
      <point x="38" y="51"/>
      <point x="32" y="109" type="curve"/>
    </contour>
  </outline>
</glyph>
<glyph name="c" format="1">
  <advance width="128"/>
  <unicode hex="0063"/>
  <outline>
    <contour>
      <point x="113" y="464" type="line"/>
      <point x="115" y="506"/>
      <point x="104" y="544"/>
      <point x="78" y="544" type="curve" smooth="yes"/>
      <point x="36" y="544"/>
      <point x="16" y="478"/>
      <point x="16" y="268" type="curve" smooth="yes"/>
      <point x="16" y="30"/>
      <point x="36" y="-12"/>
      <point x="73" y="-12" type="curve" smooth="yes"/>
      <point x="93" y="-12"/>
      <point x="115" y="14"/>
      <point x="114" y="93" type="curve"/>
      <point x="100" y="92" type="line"/>
      <point x="102" y="24"/>
      <point x="89" y="1"/>
      <point x="74" y="1" type="curve" smooth="yes"/>
      <point x="46" y="1"/>
      <point x="30" y="38"/>
      <point x="30" y="268" type="curve" smooth="yes"/>
      <point x="30" y="452"/>
      <point x="48" y="531"/>
      <point x="76" y="531" type="curve" smooth="yes"/>
      <point x="97" y="531"/>
      <point x="101" y="499"/>
      <point x="100" y="464" type="curve"/>
    </contour>
  </outline>
</glyph>
<glyph name="d" format="1">
  <advance width="141"/>
  <unicode hex="0064"/>
  <outline>
    <contour>
      <point x="111" y="42" type="line"/>
      <point x="109" y="0" type="line"/>
      <point x="122" y="0" type="line"/>
      <point x="122" y="727" type="line"/>
      <point x="109" y="727" type="line"/>
      <point x="109" y="496" type="line"/>
      <point x="108" y="496" type="line"/>
      <point x="103" y="512"/>
      <point x="97" y="544"/>
      <point x="73" y="544" type="curve" smooth="yes"/>
      <point x="40" y="544"/>
      <point x="16" y="486"/>
      <point x="16" y="264" type="curve" smooth="yes"/>
      <point x="16" y="44"/>
      <point x="43" y="-12"/>
      <point x="72" y="-12" type="curve" smooth="yes"/>
      <point x="97" y="-12"/>
      <point x="104" y="18"/>
      <point x="109" y="42" type="curve"/>
    </contour>
    <contour>
      <point x="69" y="0" type="line"/>
      <point x="48" y="0"/>
      <point x="28" y="75"/>
      <point x="30" y="264" type="curve" smooth="yes"/>
      <point x="31" y="455"/>
      <point x="47" y="532"/>
      <point x="69" y="532" type="curve" smooth="yes"/>
      <point x="90" y="532"/>
      <point x="104" y="478"/>
      <point x="109" y="442" type="curve"/>
      <point x="109" y="109" type="line"/>
      <point x="104" y="50"/>
      <point x="89" y="0"/>
      <point x="70" y="0" type="curve"/>
    </contour>
  </outline>
</glyph>
<glyph name="e" format="1">
  <advance width="135"/>
  <unicode hex="0065"/>
  <outline>
    <contour>
      <point x="117" y="271" type="line"/>
      <point x="117" y="380"/>
      <point x="109" y="460"/>
      <point x="95" y="505" type="curve" smooth="yes"/>
      <point x="89" y="530"/>
      <point x="81" y="544"/>
      <point x="67" y="544" type="curve" smooth="yes"/>
      <point x="57" y="544"/>
      <point x="45" y="533"/>
      <point x="34" y="498" type="curve" smooth="yes"/>
      <point x="22" y="458"/>
      <point x="16" y="382"/>
      <point x="16" y="272" type="curve" smooth="yes"/>
      <point x="16" y="150"/>
      <point x="21" y="77"/>
      <point x="32" y="37" type="curve" smooth="yes"/>
      <point x="41" y="0"/>
      <point x="55" y="-12"/>
      <point x="72" y="-12" type="curve" smooth="yes"/>
      <point x="89" y="-12"/>
      <point x="100" y="-2"/>
      <point x="106" y="18" type="curve" smooth="yes"/>
      <point x="114" y="40"/>
      <point x="118" y="73"/>
      <point x="119" y="110" type="curve"/>
      <point x="106" y="109" type="line"/>
      <point x="103" y="33"/>
      <point x="94" y="1"/>
      <point x="74" y="1" type="curve" smooth="yes"/>
      <point x="46" y="1"/>
      <point x="30" y="51"/>
      <point x="30" y="271" type="curve"/>
    </contour>
    <contour>
      <point x="30" y="286" type="line"/>
      <point x="30" y="518"/>
      <point x="63" y="531"/>
      <point x="67" y="531" type="curve" smooth="yes"/>
      <point x="81" y="531"/>
      <point x="104" y="464"/>
      <point x="104" y="286" type="curve"/>
    </contour>
  </outline>
</glyph>
<glyph name="g" format="1">
  <advance width="141"/>
  <unicode hex="0067"/>
  <outline>
    <contour>
      <point x="112" y="510" type="line"/>
      <point x="110" y="510" type="line"/>
      <point x="105" y="531"/>
      <point x="94" y="544"/>
      <point x="82" y="544" type="curve" smooth="yes"/>
      <point x="58" y="544"/>
      <point x="16" y="499"/>
      <point x="16" y="258" type="curve" smooth="yes"/>
      <point x="16" y="68"/>
      <point x="36" y="-12"/>
      <point x="79" y="-12" type="curve" smooth="yes"/>
      <point x="94" y="-12"/>
      <point x="104" y="2"/>
      <point x="108" y="14" type="curve"/>
      <point x="110" y="14" type="line"/>
      <point x="110" y="-2" type="line" smooth="yes"/>
      <point x="110" y="-124"/>
      <point x="107" y="-174"/>
      <point x="96" y="-213" type="curve" smooth="yes"/>
      <point x="89" y="-236"/>
      <point x="79" y="-248"/>
      <point x="69" y="-248" type="curve" smooth="yes"/>
      <point x="63" y="-248"/>
      <point x="52" y="-244"/>
      <point x="45" y="-224" type="curve" smooth="yes"/>
      <point x="42" y="-212"/>
      <point x="41" y="-197"/>
      <point x="40" y="-160" type="curve"/>
      <point x="27" y="-160" type="line"/>
      <point x="27" y="-194"/>
      <point x="30" y="-216"/>
      <point x="35" y="-231" type="curve" smooth="yes"/>
      <point x="41" y="-249"/>
      <point x="52" y="-261"/>
      <point x="67" y="-261" type="curve" smooth="yes"/>
      <point x="82" y="-261"/>
      <point x="99" y="-250"/>
      <point x="107" y="-219" type="curve" smooth="yes"/>
      <point x="119" y="-174"/>
      <point x="123" y="-126"/>
      <point x="123" y="0" type="curve" smooth="yes"/>
      <point x="123" y="532" type="line"/>
      <point x="110" y="532" type="line"/>
    </contour>
    <contour>
      <point x="30" y="259" type="line"/>
      <point x="30" y="497"/>
      <point x="68" y="533"/>
      <point x="79" y="533" type="curve" smooth="yes"/>
      <point x="91" y="533"/>
      <point x="102" y="505"/>
      <point x="110" y="472" type="curve"/>
      <point x="110" y="60" type="line"/>
      <point x="107" y="27"/>
      <point x="96" y="-1"/>
      <point x="77" y="-1" type="curve" smooth="yes"/>
      <point x="43" y="-1"/>
      <point x="30" y="98"/>
      <point x="30" y="258" type="curve"/>
    </contour>
  </outline>
</glyph>
<glyph name="h" format="1">
  <advance width="140"/>
  <unicode hex="0068"/>
  <outline>
    <contour>
      <point x="123" y="0" type="line"/>
      <point x="123" y="429" type="line" smooth="yes"/>
      <point x="123" y="480"/>
      <point x="118" y="506"/>
      <point x="110" y="524" type="curve" smooth="yes"/>
      <point x="101" y="543"/>
      <point x="86" y="544"/>
      <point x="80" y="544" type="curve" smooth="yes"/>
      <point x="66" y="544"/>
      <point x="55" y="533"/>
      <point x="48" y="519" type="curve" smooth="yes"/>
      <point x="40" y="506"/>
      <point x="35" y="488"/>
      <point x="33" y="477" type="curve"/>
      <point x="32" y="477" type="line"/>
      <point x="32" y="727" type="line"/>
      <point x="19" y="727" type="line"/>
      <point x="19" y="0" type="line"/>
      <point x="32" y="0" type="line"/>
      <point x="32" y="444" type="line"/>
      <point x="43" y="477"/>
      <point x="51" y="498"/>
      <point x="59" y="512" type="curve" smooth="yes"/>
      <point x="67" y="527"/>
      <point x="75" y="533"/>
      <point x="83" y="533" type="curve" smooth="yes"/>
      <point x="92" y="533"/>
      <point x="97" y="527"/>
      <point x="101" y="517" type="curve" smooth="yes"/>
      <point x="109" y="498"/>
      <point x="109" y="458"/>
      <point x="109" y="416" type="curve" smooth="yes"/>
      <point x="109" y="0" type="line"/>
    </contour>
  </outline>
</glyph>
<glyph name="i" format="1">
  <advance width="50"/>
  <unicode hex="0069"/>
  <outline>
    <contour>
      <point x="32" y="648" type="line"/>
      <point x="32" y="727" type="line"/>
      <point x="18" y="727" type="line"/>
      <point x="18" y="648" type="line"/>
    </contour>
    <contour>
      <point x="32" y="532" type="line"/>
      <point x="18" y="532" type="line"/>
      <point x="18" y="0" type="line"/>
      <point x="32" y="0" type="line"/>
    </contour>
  </outline>
</glyph>
<glyph name="j" format="1">
  <advance width="50"/>
  <unicode hex="006A"/>
  <outline>
    <contour>
      <point x="32" y="648" type="line"/>
      <point x="32" y="727" type="line"/>
      <point x="18" y="727" type="line"/>
      <point x="18" y="648" type="line"/>
    </contour>
    <contour>
      <point x="-17" y="-225" type="line"/>
      <point x="-15" y="-226"/>
      <point x="-12" y="-228"/>
      <point x="-10" y="-229" type="curve" smooth="yes"/>
      <point x="-9" y="-229"/>
      <point x="-7" y="-230"/>
      <point x="-2" y="-230" type="curve" smooth="yes"/>
      <point x="7" y="-230"/>
      <point x="16" y="-221"/>
      <point x="22" y="-203" type="curve" smooth="yes"/>
      <point x="31" y="-181"/>
      <point x="32" y="-141"/>
      <point x="32" y="-82" type="curve" smooth="yes"/>
      <point x="32" y="532" type="line"/>
      <point x="18" y="532" type="line"/>
      <point x="18" y="-80" type="line" smooth="yes"/>
      <point x="18" y="-139"/>
      <point x="16" y="-179"/>
      <point x="9" y="-201" type="curve" smooth="yes"/>
      <point x="7" y="-211"/>
      <point x="4" y="-218"/>
      <point x="-1" y="-218" type="curve" smooth="yes"/>
      <point x="-3" y="-218"/>
      <point x="-4" y="-217"/>
      <point x="-6" y="-216" type="curve" smooth="yes"/>
      <point x="-6" y="-216"/>
      <point x="-8" y="-214"/>
      <point x="-9" y="-213" type="curve"/>
    </contour>
  </outline>
</glyph>
<glyph name="k" format="1">
  <advance width="100"/>
  <unicode hex="006B"/>
  <outline>
    <contour>
      <point x="47" y="326" type="line"/>
      <point x="90" y="532" type="line"/>
      <point x="75" y="532" type="line"/>
      <point x="54" y="417" type="line" smooth="yes"/>
      <point x="47" y="380"/>
      <point x="38" y="339"/>
      <point x="31" y="294" type="curve"/>
      <point x="29" y="294" type="line"/>
      <point x="31" y="336"/>
      <point x="32" y="373"/>
      <point x="32" y="419" type="curve" smooth="yes"/>
      <point x="32" y="727" type="line"/>
      <point x="19" y="727" type="line"/>
      <point x="19" y="0" type="line"/>
      <point x="32" y="0" type="line"/>
      <point x="32" y="259" type="line"/>
      <point x="41" y="301" type="line"/>
      <point x="92" y="0" type="line"/>
      <point x="105" y="0" type="line"/>
    </contour>
  </outline>
</glyph>
<glyph name="l" format="1">
  <advance width="50"/>
  <unicode hex="006C"/>
  <outline>
    <contour>
      <point x="32" y="0" type="line"/>
      <point x="32" y="727" type="line"/>
      <point x="18" y="727" type="line"/>
      <point x="18" y="0" type="line"/>
    </contour>
  </outline>
</glyph>
<glyph name="m" format="1">
  <advance width="204"/>
  <unicode hex="006D"/>
  <outline>
    <contour>
      <point x="186" y="0" type="line"/>
      <point x="186" y="428" type="line" smooth="yes"/>
      <point x="186" y="469"/>
      <point x="184" y="499"/>
      <point x="175" y="520" type="curve" smooth="yes"/>
      <point x="168" y="537"/>
      <point x="161" y="544"/>
      <point x="148" y="544" type="curve" smooth="yes"/>
      <point x="139" y="544"/>
      <point x="130" y="538"/>
      <point x="123" y="527" type="curve" smooth="yes"/>
      <point x="117" y="516"/>
      <point x="112" y="499"/>
      <point x="106" y="476" type="curve"/>
      <point x="104" y="476" type="line"/>
      <point x="104" y="494"/>
      <point x="101" y="511"/>
      <point x="96" y="523" type="curve" smooth="yes"/>
      <point x="90" y="536"/>
      <point x="83" y="544"/>
      <point x="70" y="544" type="curve" smooth="yes"/>
      <point x="63" y="544"/>
      <point x="55" y="538"/>
      <point x="49" y="527" type="curve" smooth="yes"/>
      <point x="42" y="516"/>
      <point x="38" y="498"/>
      <point x="32" y="475" type="curve"/>
      <point x="30" y="475" type="line"/>
      <point x="32" y="532" type="line"/>
      <point x="19" y="532" type="line"/>
      <point x="19" y="0" type="line"/>
      <point x="32" y="0" type="line"/>
      <point x="32" y="442" type="line"/>
      <point x="41" y="470"/>
      <point x="48" y="492"/>
      <point x="54" y="507" type="curve" smooth="yes"/>
      <point x="60" y="522"/>
      <point x="66" y="533"/>
      <point x="73" y="533" type="curve" smooth="yes"/>
      <point x="80" y="533"/>
      <point x="84" y="525"/>
      <point x="88" y="514" type="curve" smooth="yes"/>
      <point x="94" y="492"/>
      <point x="96" y="457"/>
      <point x="96" y="416" type="curve" smooth="yes"/>
      <point x="96" y="0" type="line"/>
      <point x="109" y="0" type="line"/>
      <point x="109" y="447" type="line"/>
      <point x="116" y="473"/>
      <point x="122" y="494"/>
      <point x="128" y="508" type="curve" smooth="yes"/>
      <point x="134" y="522"/>
      <point x="141" y="533"/>
      <point x="148" y="533" type="curve" smooth="yes"/>
      <point x="157" y="533"/>
      <point x="161" y="525"/>
      <point x="164" y="515" type="curve" smooth="yes"/>
      <point x="173" y="493"/>
      <point x="173" y="444"/>
      <point x="173" y="416" type="curve" smooth="yes"/>
      <point x="173" y="0" type="line"/>
    </contour>
  </outline>
</glyph>
<glyph name="n" format="1">
  <advance width="140"/>
  <unicode hex="006E"/>
  <outline>
    <contour>
      <point x="123" y="0" type="line"/>
      <point x="123" y="429" type="line" smooth="yes"/>
      <point x="123" y="480"/>
      <point x="118" y="506"/>
      <point x="110" y="524" type="curve" smooth="yes"/>
      <point x="101" y="543"/>
      <point x="86" y="544"/>
      <point x="80" y="544" type="curve" smooth="yes"/>
      <point x="66" y="544"/>
      <point x="55" y="533"/>
      <point x="48" y="519" type="curve" smooth="yes"/>
      <point x="40" y="505"/>
      <point x="35" y="486"/>
      <point x="33" y="476" type="curve"/>
      <point x="30" y="476" type="line"/>
      <point x="32" y="532" type="line"/>
      <point x="19" y="532" type="line"/>
      <point x="19" y="0" type="line"/>
      <point x="32" y="0" type="line"/>
      <point x="32" y="444" type="line"/>
      <point x="43" y="477"/>
      <point x="51" y="498"/>
      <point x="59" y="512" type="curve" smooth="yes"/>
      <point x="67" y="525"/>
      <point x="72" y="533"/>
      <point x="81" y="533" type="curve" smooth="yes"/>
      <point x="93" y="533"/>
      <point x="97" y="525"/>
      <point x="101" y="515" type="curve" smooth="yes"/>
      <point x="109" y="495"/>
      <point x="109" y="459"/>
      <point x="109" y="417" type="curve" smooth="yes"/>
      <point x="109" y="0" type="line"/>
    </contour>
  </outline>
</glyph>
<glyph name="o" format="1">
  <advance width="143"/>
  <unicode hex="006F"/>
  <outline>
    <contour>
      <point x="127" y="266" type="line"/>
      <point x="127" y="509"/>
      <point x="97" y="544"/>
      <point x="71" y="544" type="curve" smooth="yes"/>
      <point x="46" y="544"/>
      <point x="16" y="509"/>
      <point x="16" y="266" type="curve" smooth="yes"/>
      <point x="16" y="30"/>
      <point x="41" y="-12"/>
      <point x="71" y="-12" type="curve" smooth="yes"/>
      <point x="105" y="-12"/>
      <point x="127" y="45"/>
      <point x="127" y="265" type="curve"/>
    </contour>
    <contour>
      <point x="71" y="1" type="line"/>
      <point x="55" y="1"/>
      <point x="30" y="36"/>
      <point x="30" y="266" type="curve" smooth="yes"/>
      <point x="30" y="495"/>
      <point x="54" y="531"/>
      <point x="71" y="531" type="curve" smooth="yes"/>
      <point x="89" y="531"/>
      <point x="113" y="495"/>
      <point x="113" y="266" type="curve" smooth="yes"/>
      <point x="113" y="52"/>
      <point x="92" y="1"/>
      <point x="72" y="1" type="curve"/>
    </contour>
  </outline>
</glyph>
<glyph name="p" format="1">
  <advance width="141"/>
  <unicode hex="0070"/>
  <outline>
    <contour>
      <point x="19" y="-248" type="line"/>
      <point x="32" y="-248" type="line"/>
      <point x="32" y="26" type="line"/>
      <point x="33" y="26" type="line"/>
      <point x="37" y="14"/>
      <point x="40" y="6"/>
      <point x="47" y="-1" type="curve" smooth="yes"/>
      <point x="54" y="-10"/>
      <point x="63" y="-12"/>
      <point x="68" y="-12" type="curve" smooth="yes"/>
      <point x="83" y="-12"/>
      <point x="94" y="1"/>
      <point x="103" y="31" type="curve" smooth="yes"/>
      <point x="112" y="62"/>
      <point x="124" y="126"/>
      <point x="124" y="264" type="curve" smooth="yes"/>
      <point x="124" y="381"/>
      <point x="118" y="450"/>
      <point x="108" y="492" type="curve" smooth="yes"/>
      <point x="98" y="533"/>
      <point x="83" y="544"/>
      <point x="67" y="544" type="curve" smooth="yes"/>
      <point x="58" y="544"/>
      <point x="53" y="538"/>
      <point x="47" y="530" type="curve" smooth="yes"/>
      <point x="39" y="520"/>
      <point x="34" y="500"/>
      <point x="32" y="489" type="curve"/>
      <point x="30" y="489" type="line"/>
      <point x="32" y="532" type="line"/>
      <point x="19" y="532" type="line"/>
    </contour>
    <contour>
      <point x="32" y="442" type="line"/>
      <point x="39" y="481"/>
      <point x="47" y="504"/>
      <point x="54" y="516" type="curve" smooth="yes"/>
      <point x="61" y="528"/>
      <point x="64" y="532"/>
      <point x="70" y="532" type="curve" smooth="yes"/>
      <point x="82" y="532"/>
      <point x="90" y="515"/>
      <point x="97" y="484" type="curve" smooth="yes"/>
      <point x="106" y="445"/>
      <point x="111" y="372"/>
      <point x="111" y="264" type="curve" smooth="yes"/>
      <point x="111" y="125"/>
      <point x="101" y="60"/>
      <point x="92" y="34" type="curve" smooth="yes"/>
      <point x="86" y="10"/>
      <point x="79" y="0"/>
      <point x="70" y="0" type="curve" smooth="yes"/>
      <point x="60" y="0"/>
      <point x="52" y="9"/>
      <point x="45" y="25" type="curve" smooth="yes"/>
      <point x="38" y="42"/>
      <point x="34" y="64"/>
      <point x="32" y="92" type="curve"/>
    </contour>
  </outline>
</glyph>
<glyph name="q" format="1">
  <advance width="141"/>
  <unicode hex="0071"/>
  <outline>
    <contour>
      <point x="122" y="-248" type="line"/>
      <point x="122" y="532" type="line"/>
      <point x="109" y="532" type="line"/>
      <point x="111" y="489" type="line"/>
      <point x="109" y="489" type="line"/>
      <point x="107" y="500"/>
      <point x="101" y="519"/>
      <point x="93" y="530" type="curve" smooth="yes"/>
      <point x="89" y="539"/>
      <point x="82" y="544"/>
      <point x="73" y="544" type="curve" smooth="yes"/>
      <point x="57" y="544"/>
      <point x="44" y="533"/>
      <point x="33" y="492" type="curve" smooth="yes"/>
      <point x="22" y="450"/>
      <point x="16" y="381"/>
      <point x="16" y="264" type="curve" smooth="yes"/>
      <point x="16" y="151"/>
      <point x="24" y="70"/>
      <point x="36" y="33" type="curve" smooth="yes"/>
      <point x="47" y="1"/>
      <point x="58" y="-12"/>
      <point x="72" y="-12" type="curve" smooth="yes"/>
      <point x="79" y="-12"/>
      <point x="89" y="-9"/>
      <point x="97" y="3" type="curve" smooth="yes"/>
      <point x="101" y="9"/>
      <point x="104" y="16"/>
      <point x="108" y="29" type="curve"/>
      <point x="109" y="29" type="line"/>
      <point x="109" y="-248" type="line"/>
    </contour>
    <contour>
      <point x="109" y="92" type="line"/>
      <point x="107" y="64"/>
      <point x="102" y="42"/>
      <point x="97" y="28" type="curve" smooth="yes"/>
      <point x="89" y="9"/>
      <point x="80" y="0"/>
      <point x="70" y="0" type="curve" smooth="yes"/>
      <point x="62" y="0"/>
      <point x="54" y="11"/>
      <point x="47" y="37" type="curve" smooth="yes"/>
      <point x="39" y="64"/>
      <point x="30" y="132"/>
      <point x="30" y="264" type="curve" smooth="yes"/>
      <point x="30" y="340"/>
      <point x="33" y="437"/>
      <point x="43" y="480" type="curve" smooth="yes"/>
      <point x="51" y="517"/>
      <point x="59" y="532"/>
      <point x="70" y="532" type="curve" smooth="yes"/>
      <point x="76" y="532"/>
      <point x="81" y="528"/>
      <point x="87" y="516" type="curve" smooth="yes"/>
      <point x="93" y="504"/>
      <point x="101" y="481"/>
      <point x="109" y="442" type="curve"/>
    </contour>
  </outline>
</glyph>
<glyph name="r" format="1">
  <advance width="77"/>
  <unicode hex="0072"/>
  <outline>
    <contour>
      <point x="30" y="493" type="line"/>
      <point x="32" y="532" type="line"/>
      <point x="19" y="532" type="line"/>
      <point x="19" y="0" type="line"/>
      <point x="32" y="0" type="line"/>
      <point x="32" y="452" type="line"/>
      <point x="38" y="476"/>
      <point x="45" y="497"/>
      <point x="50" y="511" type="curve" smooth="yes"/>
      <point x="56" y="524"/>
      <point x="60" y="533"/>
      <point x="68" y="533" type="curve" smooth="yes"/>
      <point x="70" y="533"/>
      <point x="70" y="533"/>
      <point x="73" y="532" type="curve" smooth="yes"/>
      <point x="75" y="532"/>
      <point x="76" y="531"/>
      <point x="77" y="530" type="curve"/>
      <point x="79" y="540" type="line"/>
      <point x="77" y="541"/>
      <point x="76" y="542"/>
      <point x="74" y="543" type="curve" smooth="yes"/>
      <point x="72" y="543"/>
      <point x="69" y="544"/>
      <point x="66" y="544" type="curve" smooth="yes"/>
      <point x="58" y="544"/>
      <point x="52" y="538"/>
      <point x="47" y="532" type="curve" smooth="yes"/>
      <point x="41" y="522"/>
      <point x="36" y="507"/>
      <point x="32" y="493" type="curve"/>
    </contour>
  </outline>
</glyph>
<glyph name="s" format="1">
  <advance width="107"/>
  <unicode hex="0073"/>
  <outline>
    <contour>
      <point x="92" y="478" type="line"/>
      <point x="93" y="501"/>
      <point x="88" y="516"/>
      <point x="81" y="527" type="curve" smooth="yes"/>
      <point x="75" y="539"/>
      <point x="66" y="544"/>
      <point x="54" y="544" type="curve" smooth="yes"/>
      <point x="42" y="544"/>
      <point x="35" y="535"/>
      <point x="28" y="518" type="curve" smooth="yes"/>
      <point x="20" y="500"/>
      <point x="15" y="471"/>
      <point x="15" y="437" type="curve" smooth="yes"/>
      <point x="15" y="412"/>
      <point x="18" y="386"/>
      <point x="22" y="366" type="curve" smooth="yes"/>
      <point x="27" y="338"/>
      <point x="35" y="318"/>
      <point x="49" y="286" type="curve" smooth="yes"/>
      <point x="59" y="261"/>
      <point x="69" y="242"/>
      <point x="76" y="212" type="curve" smooth="yes"/>
      <point x="81" y="190"/>
      <point x="82" y="164"/>
      <point x="82" y="138" type="curve" smooth="yes"/>
      <point x="82" y="84"/>
      <point x="78" y="52"/>
      <point x="72" y="32" type="curve" smooth="yes"/>
      <point x="65" y="11"/>
      <point x="58" y="1"/>
      <point x="48" y="1" type="curve" smooth="yes"/>
      <point x="36" y="1"/>
      <point x="23" y="17"/>
      <point x="25" y="65" type="curve"/>
      <point x="10" y="66" type="line"/>
      <point x="9" y="33"/>
      <point x="20" y="11"/>
      <point x="22" y="5" type="curve" smooth="yes"/>
      <point x="32" y="-12"/>
      <point x="44" y="-12"/>
      <point x="49" y="-12" type="curve" smooth="yes"/>
      <point x="64" y="-12"/>
      <point x="76" y="5"/>
      <point x="84" y="28" type="curve" smooth="yes"/>
      <point x="94" y="56"/>
      <point x="96" y="94"/>
      <point x="96" y="139" type="curve" smooth="yes"/>
      <point x="96" y="177"/>
      <point x="92" y="200"/>
      <point x="88" y="217" type="curve" smooth="yes"/>
      <point x="83" y="240"/>
      <point x="76" y="261"/>
      <point x="60" y="297" type="curve" smooth="yes"/>
      <point x="43" y="331"/>
      <point x="40" y="343"/>
      <point x="35" y="368" type="curve" smooth="yes"/>
      <point x="32" y="386"/>
      <point x="29" y="415"/>
      <point x="29" y="437" type="curve" smooth="yes"/>
      <point x="29" y="468"/>
      <point x="32" y="495"/>
      <point x="39" y="512" type="curve" smooth="yes"/>
      <point x="43" y="523"/>
      <point x="48" y="531"/>
      <point x="55" y="531" type="curve" smooth="yes"/>
      <point x="72" y="531"/>
      <point x="79" y="504"/>
      <point x="78" y="479" type="curve"/>
    </contour>
  </outline>
</glyph>
<glyph name="t" format="1">
  <advance width="69"/>
  <unicode hex="0074"/>
  <outline>
    <contour>
      <point x="27" y="532" type="line"/>
      <point x="7" y="532" type="line"/>
      <point x="7" y="518" type="line"/>
      <point x="27" y="518" type="line"/>
      <point x="27" y="125" type="line" smooth="yes"/>
      <point x="27" y="31"/>
      <point x="25" y="-12"/>
      <point x="58" y="-12" type="curve" smooth="yes"/>
      <point x="64" y="-12"/>
      <point x="69" y="-7"/>
      <point x="70" y="-5" type="curve"/>
      <point x="64" y="7" type="line"/>
      <point x="62" y="3"/>
      <point x="61" y="0"/>
      <point x="56" y="0" type="curve" smooth="yes"/>
      <point x="34" y="0"/>
      <point x="40" y="56"/>
      <point x="40" y="153" type="curve" smooth="yes"/>
      <point x="40" y="518" type="line"/>
      <point x="60" y="518" type="line"/>
      <point x="60" y="532" type="line"/>
      <point x="40" y="532" type="line"/>
      <point x="40" y="644" type="line"/>
      <point x="27" y="644" type="line"/>
    </contour>
  </outline>
</glyph>
<glyph name="u" format="1">
  <advance width="140"/>
  <unicode hex="0075"/>
  <outline>
    <contour>
      <point x="18" y="532" type="line"/>
      <point x="18" y="103" type="line" smooth="yes"/>
      <point x="18" y="52"/>
      <point x="22" y="26"/>
      <point x="30" y="8" type="curve" smooth="yes"/>
      <point x="39" y="-11"/>
      <point x="55" y="-12"/>
      <point x="60" y="-12" type="curve" smooth="yes"/>
      <point x="74" y="-12"/>
      <point x="85" y="-1"/>
      <point x="93" y="13" type="curve" smooth="yes"/>
      <point x="100" y="27"/>
      <point x="106" y="45"/>
      <point x="108" y="55" type="curve"/>
      <point x="110" y="55" type="line"/>
      <point x="108" y="0" type="line"/>
      <point x="122" y="0" type="line"/>
      <point x="122" y="532" type="line"/>
      <point x="108" y="532" type="line"/>
      <point x="108" y="88" type="line"/>
      <point x="99" y="55"/>
      <point x="90" y="33"/>
      <point x="82" y="19" type="curve" smooth="yes"/>
      <point x="74" y="5"/>
      <point x="66" y="-1"/>
      <point x="59" y="-1" type="curve" smooth="yes"/>
      <point x="48" y="-1"/>
      <point x="44" y="6"/>
      <point x="39" y="16" type="curve" smooth="yes"/>
      <point x="31" y="36"/>
      <point x="31" y="75"/>
      <point x="31" y="117" type="curve" smooth="yes"/>
      <point x="31" y="532" type="line"/>
    </contour>
  </outline>
</glyph>
<glyph name="v" format="1">
  <advance width="86"/>
  <unicode hex="0076"/>
  <outline>
    <contour>
      <point x="42" y="10" type="line"/>
      <point x="38" y="117"/>
      <point x="32" y="206"/>
      <point x="28" y="286" type="curve" smooth="yes"/>
      <point x="13" y="532" type="line"/>
      <point x="0" y="532" type="line"/>
      <point x="35" y="0" type="line"/>
      <point x="49" y="0" type="line"/>
      <point x="85" y="532" type="line"/>
      <point x="73" y="532" type="line"/>
      <point x="58" y="287" type="line" smooth="yes"/>
      <point x="49" y="155"/>
      <point x="46" y="117"/>
      <point x="44" y="10" type="curve"/>
    </contour>
  </outline>
</glyph>
<glyph name="w" format="1">
  <advance width="105"/>
  <unicode hex="0077"/>
  <outline>
    <contour>
      <point x="55" y="518" type="line"/>
      <point x="56" y="431"/>
      <point x="58" y="375"/>
      <point x="61" y="259" type="curve" smooth="yes"/>
      <point x="69" y="0" type="line"/>
      <point x="87" y="0" type="line"/>
      <point x="104" y="532" type="line"/>
      <point x="89" y="532" type="line"/>
      <point x="84" y="281" type="line" smooth="yes"/>
      <point x="83" y="197"/>
      <point x="80" y="113"/>
      <point x="81" y="12" type="curve"/>
      <point x="78" y="12" type="line"/>
      <point x="77" y="103"/>
      <point x="73" y="198"/>
      <point x="70" y="282" type="curve" smooth="yes"/>
      <point x="62" y="532" type="line"/>
      <point x="45" y="532" type="line"/>
      <point x="37" y="282" type="line" smooth="yes"/>
      <point x="34" y="198"/>
      <point x="30" y="111"/>
      <point x="29" y="12" type="curve"/>
      <point x="26" y="12" type="line"/>
      <point x="28" y="111"/>
      <point x="23" y="211"/>
      <point x="23" y="269" type="curve" smooth="yes"/>
      <point x="16" y="532" type="line"/>
      <point x="2" y="532" type="line"/>
      <point x="19" y="0" type="line"/>
      <point x="37" y="0" type="line"/>
      <point x="44" y="247" type="line" smooth="yes"/>
      <point x="48" y="358"/>
      <point x="50" y="422"/>
      <point x="51" y="518" type="curve"/>
    </contour>
  </outline>
</glyph>
<glyph name="x" format="1">
  <advance width="99"/>
  <unicode hex="0078"/>
  <outline>
    <contour>
      <point x="95" y="532" type="line"/>
      <point x="83" y="532" type="line"/>
      <point x="52" y="291" type="line"/>
      <point x="50" y="291" type="line"/>
      <point x="18" y="532" type="line"/>
      <point x="6" y="532" type="line"/>
      <point x="6" y="531" type="line"/>
      <point x="41" y="281" type="line"/>
      <point x="1" y="1" type="line"/>
      <point x="1" y="0" type="line"/>
      <point x="13" y="0" type="line"/>
      <point x="49" y="267" type="line"/>
      <point x="51" y="267" type="line"/>
      <point x="88" y="0" type="line"/>
      <point x="99" y="0" type="line"/>
      <point x="99" y="1" type="line"/>
      <point x="61" y="281" type="line"/>
      <point x="95" y="531" type="line"/>
    </contour>
  </outline>
</glyph>
<glyph name="y" format="1">
  <advance width="103"/>
  <unicode hex="0079"/>
  <outline>
    <contour>
      <point x="106" y="532" type="line"/>
      <point x="92" y="532" type="line"/>
      <point x="75" y="303" type="line" smooth="yes"/>
      <point x="70" y="231"/>
      <point x="64" y="160"/>
      <point x="59" y="78" type="curve"/>
      <point x="57" y="78" type="line"/>
      <point x="52" y="155"/>
      <point x="43" y="232"/>
      <point x="35" y="303" type="curve" smooth="yes"/>
      <point x="10" y="532" type="line"/>
      <point x="-3" y="532" type="line"/>
      <point x="52" y="34" type="line"/>
      <point x="41" y="-102" type="line" smooth="yes"/>
      <point x="37" y="-148"/>
      <point x="31" y="-185"/>
      <point x="24" y="-210" type="curve" smooth="yes"/>
      <point x="18" y="-233"/>
      <point x="10" y="-248"/>
      <point x="2" y="-248" type="curve" smooth="yes"/>
      <point x="0" y="-248"/>
      <point x="-2" y="-248"/>
      <point x="-4" y="-246" type="curve" smooth="yes"/>
      <point x="-7" y="-244"/>
      <point x="-8" y="-241"/>
      <point x="-11" y="-239" type="curve"/>
      <point x="-16" y="-250" type="line"/>
      <point x="-12" y="-254"/>
      <point x="-9" y="-257"/>
      <point x="-6" y="-258" type="curve" smooth="yes"/>
      <point x="-4" y="-260"/>
      <point x="-1" y="-261"/>
      <point x="2" y="-261" type="curve" smooth="yes"/>
      <point x="17" y="-261"/>
      <point x="29" y="-242"/>
      <point x="36" y="-217" type="curve" smooth="yes"/>
      <point x="44" y="-194"/>
      <point x="51" y="-143"/>
      <point x="54" y="-106" type="curve" smooth="yes"/>
    </contour>
  </outline>
</glyph>
<glyph name="z" format="1">
  <advance width="94"/>
  <unicode hex="007A"/>
  <outline>
    <contour>
      <point x="84" y="532" type="line"/>
      <point x="13" y="532" type="line"/>
      <point x="13" y="518" type="line"/>
      <point x="72" y="518" type="line"/>
      <point x="6" y="15" type="line"/>
      <point x="6" y="0" type="line"/>
      <point x="89" y="0" type="line"/>
      <point x="89" y="14" type="line"/>
      <point x="18" y="14" type="line"/>
      <point x="84" y="516" type="line"/>
    </contour>
  </outline>
</glyph>
<glyph name="braceleft" format="1">
  <advance width="88"/>
  <unicode hex="007B"/>
  <outline>
    <contour>
      <point x="-11" y="288" type="line"/>
      <point x="1" y="280"/>
      <point x="14" y="269"/>
      <point x="23" y="254" type="curve" smooth="yes"/>
      <point x="33" y="237"/>
      <point x="38" y="216"/>
      <point x="38" y="183" type="curve" smooth="yes"/>
      <point x="38" y="-18" type="line" smooth="yes"/>
      <point x="38" y="-75"/>
      <point x="45" y="-103"/>
      <point x="54" y="-124" type="curve" smooth="yes"/>
      <point x="64" y="-146"/>
      <point x="84" y="-156"/>
      <point x="105" y="-156" type="curve"/>
      <point x="105" y="-144" type="line"/>
      <point x="89" y="-144"/>
      <point x="75" y="-135"/>
      <point x="65" y="-117" type="curve" smooth="yes"/>
      <point x="55" y="-98"/>
      <point x="52" y="-63"/>
      <point x="52" y="-16" type="curve" smooth="yes"/>
      <point x="52" y="166" type="line" smooth="yes"/>
      <point x="52" y="208"/>
      <point x="46" y="240"/>
      <point x="32" y="262" type="curve" smooth="yes"/>
      <point x="24" y="275"/>
      <point x="14" y="285"/>
      <point x="3" y="291" type="curve"/>
      <point x="3" y="294" type="line"/>
      <point x="15" y="301"/>
      <point x="24" y="311"/>
      <point x="32" y="323" type="curve" smooth="yes"/>
      <point x="46" y="345"/>
      <point x="52" y="377"/>
      <point x="52" y="419" type="curve" smooth="yes"/>
      <point x="52" y="599" type="line" smooth="yes"/>
      <point x="52" y="646"/>
      <point x="55" y="681"/>
      <point x="65" y="700" type="curve" smooth="yes"/>
      <point x="75" y="718"/>
      <point x="89" y="727"/>
      <point x="105" y="727" type="curve"/>
      <point x="105" y="739" type="line"/>
      <point x="84" y="739"/>
      <point x="64" y="729"/>
      <point x="54" y="707" type="curve" smooth="yes"/>
      <point x="45" y="686"/>
      <point x="38" y="658"/>
      <point x="38" y="601" type="curve" smooth="yes"/>
      <point x="38" y="402" type="line" smooth="yes"/>
      <point x="38" y="369"/>
      <point x="33" y="348"/>
      <point x="23" y="331" type="curve" smooth="yes"/>
      <point x="14" y="316"/>
      <point x="1" y="305"/>
      <point x="-11" y="298" type="curve"/>
    </contour>
  </outline>
</glyph>
<glyph name="bar" format="1">
  <advance width="34"/>
  <unicode hex="007C"/>
  <outline>
    <contour>
      <point x="9" y="-250" type="line"/>
      <point x="25" y="-250" type="line"/>
      <point x="25" y="750" type="line"/>
      <point x="9" y="750" type="line"/>
    </contour>
  </outline>
</glyph>
<glyph name="braceright" format="1">
  <advance width="88"/>
  <unicode hex="007D"/>
  <outline>
    <contour>
      <point x="99" y="298" type="line"/>
      <point x="86" y="305"/>
      <point x="74" y="316"/>
      <point x="65" y="331" type="curve" smooth="yes"/>
      <point x="55" y="348"/>
      <point x="50" y="369"/>
      <point x="50" y="402" type="curve" smooth="yes"/>
      <point x="50" y="601" type="line" smooth="yes"/>
      <point x="50" y="658"/>
      <point x="43" y="686"/>
      <point x="34" y="707" type="curve" smooth="yes"/>
      <point x="24" y="729"/>
      <point x="4" y="739"/>
      <point x="-17" y="739" type="curve"/>
      <point x="-17" y="727" type="line"/>
      <point x="-1" y="727"/>
      <point x="13" y="718"/>
      <point x="23" y="700" type="curve" smooth="yes"/>
      <point x="32" y="681"/>
      <point x="36" y="646"/>
      <point x="36" y="599" type="curve" smooth="yes"/>
      <point x="36" y="419" type="line" smooth="yes"/>
      <point x="36" y="377"/>
      <point x="41" y="345"/>
      <point x="56" y="323" type="curve" smooth="yes"/>
      <point x="64" y="311"/>
      <point x="72" y="301"/>
      <point x="85" y="294" type="curve"/>
      <point x="85" y="291" type="line"/>
      <point x="73" y="285"/>
      <point x="64" y="275"/>
      <point x="56" y="262" type="curve" smooth="yes"/>
      <point x="41" y="240"/>
      <point x="36" y="208"/>
      <point x="36" y="166" type="curve" smooth="yes"/>
      <point x="36" y="-16" type="line" smooth="yes"/>
      <point x="36" y="-63"/>
      <point x="32" y="-98"/>
      <point x="23" y="-117" type="curve" smooth="yes"/>
      <point x="13" y="-135"/>
      <point x="-1" y="-144"/>
      <point x="-17" y="-144" type="curve"/>
      <point x="-17" y="-156" type="line"/>
      <point x="4" y="-156"/>
      <point x="24" y="-146"/>
      <point x="34" y="-124" type="curve" smooth="yes"/>
      <point x="43" y="-103"/>
      <point x="50" y="-75"/>
      <point x="50" y="-18" type="curve" smooth="yes"/>
      <point x="50" y="183" type="line" smooth="yes"/>
      <point x="50" y="216"/>
      <point x="55" y="237"/>
      <point x="65" y="254" type="curve" smooth="yes"/>
      <point x="74" y="269"/>
      <point x="86" y="280"/>
      <point x="99" y="288" type="curve"/>
    </contour>
  </outline>
</glyph>
<glyph name="paragraph" format="1">
  <advance width="205"/>
  <unicode hex="00B6"/>
  <outline>
    <contour>
      <point x="116" y="-131" type="line"/>
      <point x="129" y="-131" type="line"/>
      <point x="129" y="695" type="line"/>
      <point x="160" y="695" type="line"/>
      <point x="160" y="-131" type="line"/>
      <point x="174" y="-131" type="line"/>
      <point x="174" y="709" type="line"/>
      <point x="137" y="709" type="line" smooth="yes"/>
      <point x="90" y="709"/>
      <point x="55" y="687"/>
      <point x="32" y="652" type="curve" smooth="yes"/>
      <point x="9" y="617"/>
      <point x="-2" y="568"/>
      <point x="-2" y="515" type="curve" smooth="yes"/>
      <point x="-2" y="464"/>
      <point x="8" y="417"/>
      <point x="28" y="382" type="curve" smooth="yes"/>
      <point x="47" y="347"/>
      <point x="77" y="325"/>
      <point x="116" y="320" type="curve"/>
    </contour>
  </outline>
</glyph>
<glyph name="endash" format="1">
  <advance width="127"/>
  <unicode hex="2013"/>
  <outline>
    <contour>
      <point x="20" y="255" type="line"/>
      <point x="20" y="245" type="line"/>
      <point x="107" y="245" type="line"/>
      <point x="107" y="255" type="line"/>
    </contour>
  </outline>
</glyph>
<glyph name="emdash" format="1">
  <advance width="254"/>
  <unicode hex="2014"/>
  <outline>
    <contour>
      <point x="20" y="255" type="line"/>
      <point x="20" y="245" type="line"/>
      <point x="234" y="245" type="line"/>
      <point x="234" y="255" type="line"/>
    </contour>
  </outline>
</glyph>
<glyph name="bullet" format="1">
  <advance width="117"/>
  <unicode hex="2022"/>
  <outline>
    <contour>
      <point x="59" y="398" type="line"/>
      <point x="27" y="398"/>
      <point x="1" y="372"/>
      <point x="1" y="341" type="curve" smooth="yes"/>
      <point x="1" y="309"/>
      <point x="27" y="283"/>
      <point x="59" y="283" type="curve" smooth="yes"/>
      <point x="90" y="283"/>
      <point x="116" y="309"/>
      <point x="116" y="341" type="curve" smooth="yes"/>
      <point x="116" y="372"/>
      <point x="90" y="398"/>
      <point x="60" y="398" type="curve"/>
    </contour>
  </outline>
</glyph>
<glyph name="trademark" format="1">
  <advance width="281"/>
  <unicode hex="2122"/>
  <outline>
    <contour>
      <point x="116" y="709" type="line"/>
      <point x="4" y="709" type="line"/>
      <point x="4" y="697" type="line"/>
      <point x="53" y="697" type="line"/>
      <point x="53" y="353" type="line"/>
      <point x="67" y="353" type="line"/>
      <point x="67" y="697" type="line"/>
      <point x="116" y="697" type="line"/>
    </contour>
    <contour>
      <point x="183" y="362" type="line"/>
      <point x="183" y="420"/>
      <point x="177" y="478"/>
      <point x="170" y="536" type="curve" smooth="yes"/>
      <point x="148" y="709" type="line"/>
      <point x="127" y="709" type="line"/>
      <point x="127" y="353" type="line"/>
      <point x="139" y="353" type="line"/>
      <point x="139" y="527" type="line" smooth="yes"/>
      <point x="139" y="584"/>
      <point x="137" y="641"/>
      <point x="136" y="700" type="curve"/>
      <point x="139" y="700" type="line"/>
      <point x="143" y="642"/>
      <point x="151" y="584"/>
      <point x="158" y="526" type="curve" smooth="yes"/>
      <point x="179" y="353" type="line"/>
      <point x="190" y="353" type="line"/>
      <point x="213" y="527" type="line" smooth="yes"/>
      <point x="221" y="584"/>
      <point x="229" y="641"/>
      <point x="233" y="700" type="curve"/>
      <point x="236" y="700" type="line"/>
      <point x="235" y="642"/>
      <point x="233" y="584"/>
      <point x="233" y="527" type="curve" smooth="yes"/>
      <point x="233" y="353" type="line"/>
      <point x="247" y="353" type="line"/>
      <point x="247" y="709" type="line"/>
      <point x="225" y="709" type="line"/>
      <point x="202" y="536" type="line" smooth="yes"/>
      <point x="194" y="479"/>
      <point x="187" y="421"/>
      <point x="186" y="362" type="curve"/>
    </contour>
  </outline>
</glyph>
<glyph name="fi" format="1">
  <advance width="96"/>
  <unicode hex="FB01"/>
  <outline>
    <contour>
      <point x="66" y="735" type="line"/>
      <point x="64" y="737"/>
      <point x="62" y="738"/>
      <point x="60" y="739" type="curve" smooth="yes"/>
      <point x="59" y="739"/>
      <point x="57" y="739"/>
      <point x="55" y="739" type="curve" smooth="yes"/>
      <point x="45" y="739"/>
      <point x="37" y="731"/>
      <point x="32" y="721" type="curve" smooth="yes"/>
      <point x="18" y="696"/>
      <point x="18" y="647"/>
      <point x="18" y="586" type="curve" smooth="yes"/>
      <point x="18" y="532" type="line"/>
      <point x="-1" y="532" type="line"/>
      <point x="-1" y="518" type="line"/>
      <point x="18" y="518" type="line"/>
      <point x="18" y="0" type="line"/>
      <point x="31" y="0" type="line"/>
      <point x="31" y="518" type="line"/>
      <point x="70" y="518" type="line"/>
      <point x="70" y="532" type="line"/>
      <point x="31" y="532" type="line"/>
      <point x="31" y="586" type="line" smooth="yes"/>
      <point x="31" y="660"/>
      <point x="33" y="700"/>
      <point x="43" y="716" type="curve" smooth="yes"/>
      <point x="47" y="724"/>
      <point x="50" y="727"/>
      <point x="56" y="727" type="curve" smooth="yes"/>
      <point x="58" y="727"/>
      <point x="59" y="726"/>
      <point x="61" y="725" type="curve" smooth="yes"/>
      <point x="62" y="725"/>
      <point x="63" y="724"/>
      <point x="64" y="724" type="curve"/>
    </contour>
    <contour>
      <point x="78" y="648" type="line"/>
      <point x="78" y="727" type="line"/>
      <point x="65" y="727" type="line"/>
      <point x="65" y="648" type="line"/>
    </contour>
    <contour>
      <point x="78" y="532" type="line"/>
      <point x="65" y="532" type="line"/>
      <point x="65" y="0" type="line"/>
      <point x="78" y="0" type="line"/>
    </contour>
  </outline>
</glyph>
